<?xml version="1.0" encoding="UTF-8" standalone="no"?>
<svg
   xmlns:dc="http://purl.org/dc/elements/1.1/"
   xmlns:cc="http://creativecommons.org/ns#"
   xmlns:rdf="http://www.w3.org/1999/02/22-rdf-syntax-ns#"
   xmlns:svg="http://www.w3.org/2000/svg"
   xmlns="http://www.w3.org/2000/svg"
   xmlns:sodipodi="http://sodipodi.sourceforge.net/DTD/sodipodi-0.dtd"
   xmlns:inkscape="http://www.inkscape.org/namespaces/inkscape"
   version="1.1"
   viewBox="0 0 300 360"
   preserveAspectRatio="xMidYMid meet"
   stroke-linejoin="round"
   stroke-linecap="round"
   onload="initialize(evt)"
   id="svg32"
   sodipodi:docname="parse (3).svg"
   inkscape:version="0.92.2 (5c3e80d, 2017-08-06)">
  <metadata
     id="metadata36">
    <rdf:RDF>
      <cc:Work
         rdf:about="">
        <dc:format>image/svg+xml</dc:format>
        <dc:type
           rdf:resource="http://purl.org/dc/dcmitype/StillImage" />
      </cc:Work>
    </rdf:RDF>
  </metadata>
  <sodipodi:namedview
     pagecolor="#ffffff"
     bordercolor="#666666"
     borderopacity="1"
     objecttolerance="10"
     gridtolerance="10"
     guidetolerance="10"
     inkscape:pageopacity="0"
     inkscape:pageshadow="2"
     inkscape:window-width="751"
     inkscape:window-height="480"
     id="namedview34"
     showgrid="false"
     inkscape:zoom="0.65555556"
     inkscape:cx="150"
     inkscape:cy="180"
     inkscape:window-x="0"
     inkscape:window-y="0"
     inkscape:window-maximized="0"
     inkscape:current-layer="idf26ba6e10394723949b72902" />
  <!--SVG SMIL Animation Export (c) 2017 Animatron INC-->
  <!--Version 1.0 by squared9-->
  <defs
     id="defs5">
    <mask
       id="canvasMask"
       maskUnits="userSpaceOnUse">
      <rect
         x="0"
         y="0"
         width="300px"
         height="360px"
         fill="#FFFFFF"
         stroke="none"
         id="rect2" />
    </mask>
  </defs>
  <rect
     fill="rgba(255,255,255,0.0)"
     stroke="none"
     x="0"
     y="0"
     width="300px"
     height="360px"
     id="rect7" />
  <g
     id="idf26ba6e10394723949b72902"
     mask="url(#canvasMask)">
    <g
       id="id82e9938e71cff4e304309482"
       visibility="hidden">
      <set
         attributeName="visibility"
         attributeType="CSS"
         to="hidden"
         begin="0s; loop.end"
         dur="0.1"
         fill="none" />
      <set
         attributeName="visibility"
         attributeType="CSS"
         to="visible"
         begin="0.1s; loop.end + 0.1s"
         fill="none" />
      <animateTransform
         attributeName="transform"
         type="translate"
         additive="replace"
         begin="0.1s; loop.end + 0.1s"
         dur="0.30000000000000004s"
         repeatCount="1"
         fill="none"
         from="149.529 291.515"
         to="149.529 291.515"
         calcMode="discrete" />
      <animateTransform
         attributeName="transform"
         type="translate"
         additive="replace"
         begin="0.4s; loop.end + 0.4s"
         dur="2.6s"
         repeatCount="1"
         fill="none"
         from="149.529 291.515"
         to="149.529 291.515"
         calcMode="discrete" />
      <animateTransform
         attributeName="transform"
         type="translate"
         additive="replace"
         begin="3s; loop.end + 3s"
         dur="0.20000000000000018s"
         repeatCount="1"
         fill="none"
         from="149.529 291.515"
         to="149.529 291.515"
         calcMode="discrete" />
      <animate
         attributeType="CSS"
         attributeName="opacity"
         begin="0.1s; loop.end + 0.1s"
         dur="0.30000000000000004s"
         repeatCount="1"
         fill="none"
         from="0.0"
         to="1.0" />
      <animate
         attributeType="CSS"
         attributeName="opacity"
         begin="0.4s; loop.end + 0.4s"
         dur="2.6s"
         repeatCount="1"
         fill="none"
         from="1.0"
         to="1.0"
         calcMode="discrete" />
      <animate
         attributeType="CSS"
         attributeName="opacity"
         begin="3s; loop.end + 3s"
         dur="0.20000000000000018s"
         repeatCount="1"
         fill="none"
         from="1.0"
         to="0.0" />
      <animateTransform
         attributeName="transform"
         type="translate"
         additive="sum"
         begin="0.1s; loop.end + 0.1s"
         dur="0.30000000000000004s"
         repeatCount="1"
         fill="none"
         from="-0.0 -0.0"
         to="-0.0 -0.0"
         calcMode="discrete" />
      <animateTransform
         attributeName="transform"
         type="translate"
         additive="sum"
         begin="0.4s; loop.end + 0.4s"
         dur="2.6s"
         repeatCount="1"
         fill="none"
         from="-0.0 -0.0"
         to="-0.0 -0.0"
         calcMode="discrete" />
      <animateTransform
         attributeName="transform"
         type="translate"
         additive="sum"
         begin="3s; loop.end + 3s"
         dur="0.20000000000000018s"
         repeatCount="1"
         fill="none"
         from="-0.0 -0.0"
         to="-0.0 -0.0"
         calcMode="discrete" />
      <path
         id="id73daa179110db7efa2ed9e22"
         d="M 237.1,355.399 L 234.8,357.798 L 237.199,360.197 L 239.598,357.798 L 237.101,355.399 L 237.101,355.399 M 243,355.399 L 240.7,357.798 L 243,360.197 L 245.399,357.798 L 243,355.399 L 243,355.399 M 282.298,354.799 L 279.798,357.299 L 282.398,359.899 L 284.898,357.399 L 282.298,354.799 L 282.298,354.799 M 355.298,343.9 C 355.898,343.9 356.297,344 356.696,344.298 C 357.095,344.596 357.395,344.896 357.594,345.194 C 357.793,345.593 357.992,345.893 358.092,346.292 C 358.192,346.691 358.192,346.991 358.192,347.19 C 358.192,347.79 358.092,348.29 357.992,348.689 C 357.892,348.987 357.693,349.287 357.494,349.486 C 357.295,349.685 357.096,349.783 356.897,349.783 C 356.698,349.783 356.6,349.783 356.5,349.783 C 356.202,349.783 356.003,349.683 355.604,349.583 C 355.306,349.483 354.907,349.383 354.508,349.184 C 354.109,348.985 353.71,348.887 353.41,348.688 C 353.011,348.489 352.612,348.29 352.312,348.091 C 352.511,347.692 352.609,347.192 352.808,346.692 C 352.908,346.192 353.107,345.692 353.306,345.293 C 353.505,344.894 353.803,344.495 354.101,344.195 C 354.401,343.996 354.8,343.896 355.3,343.896 L 355.3,343.896 M 271.502,343.896 C 272.102,343.896 272.501,343.996 272.9,344.294 C 273.299,344.592 273.599,344.892 273.798,345.19 C 273.997,345.589 274.196,345.889 274.296,346.288 C 274.396,346.687 274.396,346.987 274.396,347.186 C 274.396,347.786 274.296,348.286 274.196,348.685 C 274.096,348.983 273.897,349.283 273.698,349.482 C 273.499,349.681 273.3,349.779 273.101,349.779 C 272.902,349.779 272.804,349.779 272.704,349.779 C 272.406,349.779 272.207,349.679 271.808,349.579 C 271.51,349.479 271.111,349.379 270.813,349.18 C 270.414,348.981 270.015,348.883 269.616,348.684 C 269.217,348.485 268.917,348.286 268.518,348.087 C 268.717,347.688 268.815,347.188 269.014,346.688 C 269.213,346.188 269.311,345.688 269.51,345.289 C 269.709,344.89 270.007,344.491 270.305,344.191 C 270.605,343.992 271.004,343.892 271.504,343.892 L 271.504,343.892 M 316.903,343.693 C 317.302,343.693 317.701,343.793 318.001,343.893 C 318.4,343.993 318.7,344.192 318.998,344.391 C 319.296,344.59 319.495,344.888 319.694,345.287 C 319.893,345.686 319.991,346.085 319.991,346.585 C 319.991,346.984 319.891,347.284 319.791,347.483 C 319.691,347.781 319.492,347.98 319.293,348.179 C 319.094,348.378 318.895,348.476 318.696,348.576 C 318.497,348.676 318.199,348.776 318,348.874 C 317.801,348.974 317.602,348.974 317.403,348.974 C 317.204,348.974 317.106,348.974 316.907,348.974 L 310.407,348.974 C 310.806,348.275 311.306,347.576 311.806,346.976 C 312.306,346.376 312.906,345.776 313.406,345.276 C 314.006,344.776 314.506,344.377 315.106,344.077 C 315.706,343.777 316.306,343.679 316.906,343.679 L 316.906,343.679 M 226.308,337.679 L 223.409,339.578 L 228.409,346.578 C 228.608,346.876 228.706,347.075 228.804,347.274 C 228.902,347.473 229,347.571 229,347.671 C 229.098,347.771 229.098,347.871 229.098,347.969 C 229.098,348.069 229.098,348.169 229,348.267 C 228.902,348.565 228.703,348.764 228.403,348.864 C 228.103,348.964 227.803,349.163 227.303,349.163 C 226.904,349.263 226.404,349.263 225.904,349.163 C 225.404,349.163 224.806,349.063 224.208,348.963 C 223.61,348.863 223.012,348.664 222.414,348.564 C 221.816,348.365 221.218,348.166 220.62,347.967 L 219.62,351.265 C 220.42,351.563 221.119,351.762 221.717,351.862 C 222.315,352.061 222.815,352.159 223.315,352.259 C 223.815,352.359 224.214,352.459 224.614,352.459 C 225.013,352.459 225.313,352.559 225.713,352.559 C 226.213,352.559 226.612,352.559 227.112,352.459 C 227.612,352.359 228.112,352.259 228.612,352.161 C 229.112,352.061 229.511,351.862 230.011,351.562 C 230.41,351.363 230.81,351.065 231.11,350.666 C 231.91,351.464 232.809,351.964 233.709,352.163 L 233.709,352.263 L 238.509,352.263 C 239.408,352.263 240.208,352.163 240.907,351.964 C 241.606,351.765 242.204,351.467 242.802,350.967 C 243.201,351.366 243.799,351.666 244.498,351.964 C 245.197,352.163 245.896,352.261 246.696,352.261 L 250.496,352.261 C 251.094,352.261 251.793,352.161 252.391,351.962 C 252.989,351.763 253.587,351.364 254.087,350.965 C 254.587,350.465 254.986,349.965 255.286,349.266 C 255.586,348.567 255.785,347.769 255.785,346.769 C 255.785,346.471 255.785,346.072 255.687,345.673 C 255.687,345.274 255.589,344.875 255.491,344.375 C 255.393,343.976 255.393,343.476 255.295,343.077 C 255.197,342.678 255.197,342.279 255.099,341.88 C 255.001,341.481 255.001,341.181 254.903,340.982 C 254.805,340.783 254.805,340.584 254.805,340.484 L 251.505,341.484 C 251.505,341.584 251.603,341.783 251.701,342.083 C 251.799,342.381 251.799,342.58 251.897,342.979 C 251.995,343.277 251.995,343.577 252.093,343.976 C 252.191,344.274 252.191,344.673 252.289,344.971 C 252.387,345.269 252.387,345.668 252.387,345.867 C 252.387,346.165 252.485,346.364 252.485,346.563 C 252.485,347.063 252.387,347.462 252.289,347.762 C 252.09,348.06 251.992,348.259 251.692,348.359 C 251.493,348.459 251.294,348.559 251.095,348.657 C 250.896,348.657 250.697,348.657 250.599,348.657 L 246.7,348.657 C 246.602,348.657 246.504,348.657 246.204,348.657 C 246.005,348.657 245.705,348.557 245.506,348.457 C 245.307,348.357 245.108,348.158 244.909,347.959 C 244.71,347.76 244.612,347.361 244.612,346.962 L 244.612,342.563 L 241.112,342.563 L 241.112,347.063 C 241.112,347.262 241.112,347.461 241.014,347.66 C 241.014,347.859 240.815,348.058 240.717,348.158 C 240.518,348.357 240.319,348.455 239.919,348.555 C 239.619,348.655 239.119,348.755 238.521,348.755 L 235.721,348.755 L 235.721,348.755 L 234.623,348.755 C 234.424,348.755 234.124,348.655 233.824,348.456 C 233.524,348.257 233.224,347.959 232.925,347.56 C 232.625,347.161 232.325,346.762 232.026,346.363 C 231.726,345.964 231.426,345.464 231.227,345.065 L 226.328,337.666 L 226.328,337.666 M 327.827,334.267 L 325.529,336.666 L 327.827,339.065 L 330.226,336.666 L 327.827,334.267 L 327.827,334.267 M 333.726,334.267 L 331.428,336.666 L 333.827,339.065 L 336.226,336.666 L 333.726,334.267 L 333.726,334.267 M 342.524,333.767 L 340.024,336.367 L 342.524,338.967 L 345.124,336.467 L 342.524,333.768 L 342.524,333.768 M 251.424,332.47 L 248.924,334.97 L 251.424,337.57 L 253.924,334.97 L 251.424,332.47 L 251.424,332.47 M 308.023,332.271 L 308.023,347.17 L 306.824,348.968 L 306.026,348.968 C 305.926,348.968 305.826,348.968 305.528,348.868 C 305.329,348.868 305.031,348.768 304.832,348.569 C 304.633,348.37 304.434,348.171 304.235,347.972 C 304.036,347.674 303.938,347.374 303.938,346.975 L 303.938,342.776 L 300.438,342.776 L 300.438,351.276 C 300.438,352.175 300.338,352.975 300.139,353.674 C 299.94,354.373 299.642,354.873 299.243,355.272 C 298.844,355.671 298.244,355.971 297.644,356.17 C 296.945,356.369 296.246,356.467 295.347,356.467 L 293.648,356.467 L 293.648,359.967 L 295.347,359.967 C 296.645,359.967 297.745,359.768 298.745,359.369 C 299.745,358.97 300.644,358.47 301.343,357.771 C 302.042,357.072 302.64,356.274 303.14,355.274 C 303.539,354.274 303.839,353.174 303.937,351.975 C 303.937,351.975 304.037,351.975 304.037,352.075 L 304.037,352.474 L 328.236,352.474 C 329.135,352.474 329.935,352.374 330.634,352.175 C 331.333,351.976 331.931,351.678 332.531,351.178 C 332.93,351.577 333.53,351.877 334.229,352.076 C 334.928,352.275 335.627,352.375 336.427,352.375 L 339.027,352.375 C 339.926,352.375 340.726,352.275 341.425,352.076 C 342.124,351.877 342.722,351.579 343.322,351.079 C 343.721,351.478 344.321,351.778 344.921,351.977 C 345.219,352.077 345.618,352.177 346.017,352.275 L 346.017,352.375 L 348.017,352.375 L 348.017,352.375 C 348.517,352.375 349.017,352.275 349.416,352.076 C 349.916,351.877 350.315,351.579 350.815,351.079 C 351.415,351.377 351.915,351.677 352.314,351.876 C 352.814,352.075 353.213,352.274 353.612,352.473 C 354.011,352.672 354.511,352.77 354.91,352.87 C 355.309,352.97 355.809,352.97 356.208,352.97 C 356.407,352.97 356.705,352.97 357.003,352.87 C 357.301,352.87 357.7,352.77 357.998,352.67 C 358.397,352.57 358.697,352.371 359.096,352.071 C 359.495,351.773 359.795,351.473 359.994,350.973 C 360.292,350.574 360.491,349.974 360.69,349.275 C 360.889,348.576 360.987,347.778 360.987,346.778 C 360.987,345.879 360.887,345.079 360.589,344.281 C 360.39,343.483 359.991,342.784 359.491,342.184 C 358.991,341.584 358.391,341.084 357.692,340.685 C 356.993,340.286 356.094,340.186 355.094,340.186 C 354.094,340.186 353.296,340.385 352.597,340.784 C 351.898,341.183 351.398,341.683 350.898,342.183 C 350.499,342.783 350.1,343.383 349.901,344.181 C 349.603,344.88 349.404,345.579 349.205,346.278 C 349.105,346.677 349.005,346.977 348.907,347.376 C 348.807,347.674 348.707,347.974 348.508,348.173 C 348.408,348.372 348.209,348.571 348.109,348.671 C 348.009,348.771 347.81,348.871 347.611,348.871 L 347.011,348.871 C 346.911,348.871 346.811,348.871 346.513,348.871 C 346.314,348.871 346.016,348.771 345.817,348.671 C 345.618,348.571 345.419,348.372 345.22,348.173 C 345.021,347.974 344.923,347.575 344.923,347.176 L 344.923,342.777 L 341.423,342.777 L 341.423,347.277 C 341.423,347.476 341.423,347.675 341.323,347.874 C 341.323,348.073 341.124,348.272 341.026,348.372 C 340.827,348.571 340.628,348.669 340.229,348.769 C 339.931,348.869 339.431,348.969 338.831,348.969 L 336.231,348.969 C 336.131,348.969 336.031,348.969 335.733,348.969 C 335.534,348.969 335.236,348.869 335.037,348.769 C 334.838,348.669 334.639,348.47 334.44,348.271 C 334.241,348.072 334.143,347.673 334.143,347.274 L 334.143,342.875 L 330.643,342.875 L 330.643,347.375 C 330.643,347.574 330.643,347.773 330.543,347.972 C 330.543,348.171 330.344,348.37 330.246,348.47 C 330.047,348.669 329.848,348.767 329.449,348.867 C 329.151,348.967 328.651,349.067 328.051,349.067 L 322.152,349.067 C 322.252,348.769 322.352,348.37 322.45,347.971 C 322.55,347.572 322.55,347.173 322.55,346.673 C 322.55,345.474 322.351,344.474 322.053,343.676 C 321.755,342.878 321.255,342.179 320.755,341.78 C 320.155,341.28 319.555,340.982 318.856,340.682 C 318.157,340.483 317.458,340.385 316.658,340.385 C 316.158,340.385 315.658,340.485 315.158,340.585 C 314.658,340.685 314.158,340.884 313.759,341.184 C 313.36,341.383 312.86,341.681 312.461,341.979 C 312.062,342.277 311.663,342.676 311.264,343.075 L 311.264,332.475 L 308.065,332.276 L 308.065,332.276 M 257.767,332.276 L 257.767,345.574 C 257.767,346.372 257.767,347.071 257.867,347.77 C 257.967,348.37 258.067,348.97 258.165,349.47 C 258.364,349.97 258.563,350.47 258.863,350.768 C 259.161,351.167 259.56,351.467 260.06,351.666 C 260.56,351.865 261.16,352.064 261.958,352.263 C 262.058,352.263 262.257,352.263 262.357,352.263 L 262.357,352.462 L 264.056,352.462 C 264.156,352.462 264.256,352.462 264.354,352.462 C 264.454,352.462 264.554,352.462 264.652,352.462 L 264.652,352.462 C 265.051,352.462 265.45,352.362 265.75,352.262 C 266.25,352.063 266.649,351.765 267.149,351.265 C 267.749,351.563 268.249,351.863 268.648,352.062 C 269.148,352.261 269.547,352.46 269.946,352.659 C 270.345,352.858 270.845,352.956 271.244,353.056 C 271.643,353.156 272.143,353.156 272.542,353.156 C 272.741,353.156 273.039,353.156 273.337,353.156 C 273.635,353.156 273.935,353.056 274.334,352.956 C 274.733,352.856 275.033,352.657 275.331,352.458 C 275.629,352.259 275.929,351.961 276.227,351.562 C 276.727,351.86 277.227,352.059 277.727,352.258 L 277.727,352.556 L 281.426,352.556 C 282.026,352.556 282.725,352.456 283.325,352.257 C 283.925,352.058 284.525,351.659 285.025,351.26 C 285.525,350.76 285.924,350.26 286.224,349.561 C 286.522,348.862 286.721,348.064 286.721,347.064 C 286.721,346.766 286.721,346.367 286.621,345.968 C 286.621,345.569 286.521,345.17 286.421,344.67 C 286.321,344.271 286.321,343.771 286.221,343.372 C 286.121,342.973 286.121,342.574 286.021,342.175 C 285.921,341.776 285.921,341.476 285.821,341.277 C 285.721,341.078 285.721,340.879 285.721,340.779 L 282.423,341.779 C 282.423,341.879 282.523,342.078 282.623,342.378 C 282.723,342.676 282.723,342.875 282.823,343.274 C 282.923,343.572 282.923,343.872 283.023,344.271 C 283.123,344.569 283.123,344.968 283.223,345.266 C 283.323,345.564 283.323,345.963 283.323,346.261 C 283.323,346.559 283.423,346.758 283.423,346.957 C 283.423,347.457 283.323,347.856 283.223,348.156 C 283.024,348.454 282.926,348.653 282.626,348.753 C 282.427,348.853 282.228,348.953 282.029,349.051 C 281.83,349.051 281.631,349.051 281.531,349.051 L 279.531,349.051 C 279.431,349.051 279.232,349.051 279.033,349.051 C 278.735,349.051 278.536,348.951 278.238,348.752 C 277.94,348.652 277.741,348.354 277.542,348.155 C 277.343,347.857 277.245,347.458 277.245,346.958 C 277.245,346.16 277.046,345.261 276.847,344.562 C 276.648,343.764 276.249,343.065 275.749,342.465 C 275.249,341.865 274.649,341.365 273.95,341.067 C 273.251,340.769 272.453,340.57 271.453,340.57 C 270.453,340.57 269.655,340.769 268.956,341.168 C 268.257,341.567 267.757,342.067 267.257,342.567 C 266.858,343.167 266.459,343.767 266.26,344.565 C 265.962,345.264 265.763,345.963 265.564,346.662 C 265.464,347.061 265.364,347.361 265.266,347.76 C 265.166,348.058 265.066,348.358 264.968,348.557 C 264.868,348.756 264.669,348.955 264.569,349.055 C 264.469,349.155 264.27,349.155 264.071,349.255 C 263.571,349.255 262.971,349.255 262.673,349.155 C 262.274,349.055 261.875,348.856 261.676,348.657 C 261.477,348.359 261.278,348.059 261.278,347.66 C 261.278,347.261 261.178,346.661 261.178,345.863 L 261.178,332.565 L 257.779,332.265 L 257.779,332.265 M 317.779,331.667 L 315.279,334.267 L 317.879,336.867 L 320.379,334.367 L 317.779,331.668 L 317.779,331.668 M 249.58,316.269 L 247.08,318.869 L 249.58,321.469 L 252.08,318.969 L 249.58,316.27 L 249.58,316.27 M 300.279,305.172 C 300.577,305.172 300.877,305.172 301.175,305.272 C 301.473,305.272 301.773,305.471 301.972,305.569 C 302.171,305.669 302.37,305.868 302.569,306.168 C 302.669,306.367 302.769,306.665 302.769,307.064 C 302.769,307.463 302.57,307.862 302.272,308.162 C 301.974,308.46 301.575,308.76 301.075,308.959 C 300.575,309.158 299.975,309.357 299.375,309.556 C 298.775,309.656 298.175,309.756 297.577,309.854 C 297.577,308.854 297.677,308.056 297.876,307.456 C 298.075,306.856 298.274,306.356 298.574,306.058 C 298.872,305.76 299.172,305.46 299.47,305.36 C 299.669,305.26 299.967,305.162 300.267,305.162 L 300.267,305.162 L 300.267,305.162 M 402.865,305.162 C 403.264,305.162 403.663,305.262 403.963,305.362 C 404.362,305.462 404.662,305.661 404.96,305.86 C 405.258,306.059 405.457,306.357 405.656,306.756 C 405.855,307.155 405.953,307.554 405.953,308.054 C 405.953,308.453 405.853,308.753 405.753,308.952 C 405.653,309.25 405.454,309.449 405.255,309.648 C 405.056,309.847 404.857,309.945 404.658,310.045 C 404.459,310.145 404.161,310.245 403.962,310.343 C 403.763,310.443 403.564,310.443 403.365,310.443 C 403.166,310.443 403.068,310.443 402.869,310.443 L 396.369,310.443 C 396.768,309.744 397.268,309.146 397.768,308.447 C 398.268,307.847 398.868,307.247 399.368,306.747 C 399.968,306.247 400.468,305.848 401.068,305.548 C 401.767,305.25 402.365,305.152 402.865,305.152 L 402.865,305.152 L 402.865,305.152 M 384.767,305.052 C 385.166,305.052 385.466,305.152 385.764,305.252 C 386.062,305.352 386.261,305.551 386.46,305.75 C 386.659,305.949 386.858,306.148 386.958,306.448 C 387.058,306.647 387.158,306.945 387.158,307.144 C 387.158,307.543 387.058,307.843 386.958,308.141 C 386.858,308.439 386.659,308.739 386.46,308.938 C 386.261,309.137 385.963,309.336 385.665,309.535 C 385.367,309.734 385.067,309.832 384.668,310.031 C 383.969,309.733 383.27,309.334 382.871,308.935 C 382.371,308.435 382.172,307.935 382.172,307.236 C 382.172,306.938 382.272,306.739 382.372,306.441 C 382.472,306.143 382.671,305.944 382.87,305.745 C 383.069,305.546 383.367,305.347 383.665,305.247 C 383.963,305.048 384.362,305.048 384.761,305.048 L 384.761,305.048 L 384.761,305.048 M 234.861,304.248 L 234.861,312.748 C 234.861,313.647 234.763,314.447 234.564,315.146 C 234.365,315.845 234.065,316.345 233.666,316.744 C 233.267,317.143 232.669,317.443 232.071,317.642 C 231.372,317.841 230.673,317.939 229.773,317.939 L 228.074,317.939 L 228.074,321.439 L 229.773,321.439 C 231.073,321.439 232.272,321.24 233.272,320.841 C 234.272,320.442 235.171,319.842 235.971,319.143 C 236.67,318.444 237.268,317.545 237.667,316.545 C 238.066,315.545 238.366,314.346 238.366,313.048 L 238.366,304.25 L 234.869,304.25 L 234.869,304.25 M 191.869,304.25 L 191.869,312.75 C 191.869,313.649 191.771,314.449 191.572,315.148 C 191.373,315.847 191.073,316.347 190.674,316.746 C 190.275,317.145 189.677,317.445 189.079,317.644 C 188.38,317.843 187.681,317.941 186.781,317.941 L 185.082,317.941 L 185.082,321.441 L 186.781,321.441 C 188.081,321.441 189.28,321.242 190.28,320.843 C 191.28,320.444 192.179,319.844 192.979,319.145 C 193.678,318.446 194.276,317.547 194.675,316.547 C 195.074,315.547 195.374,314.348 195.374,313.05 L 195.374,304.252 L 191.877,304.252 L 191.877,304.252 M 280.876,301.553 C 279.578,301.553 278.379,301.752 277.279,302.151 C 276.279,302.55 275.38,303.15 274.58,303.849 C 273.881,304.548 273.283,305.346 272.884,306.346 C 272.485,307.245 272.286,308.245 272.286,309.345 C 272.286,309.945 272.386,310.445 272.486,311.045 C 272.586,311.645 272.785,312.245 272.984,312.843 C 273.383,312.943 273.782,313.043 274.282,313.141 C 274.782,313.241 275.181,313.341 275.681,313.54 C 276.181,313.64 276.58,313.74 277.08,313.939 C 277.58,314.039 277.979,314.139 278.378,314.237 C 278.777,314.337 279.077,314.437 279.375,314.535 C 279.673,314.635 279.872,314.635 279.972,314.735 C 279.972,315.434 279.872,315.934 279.673,316.434 C 279.474,316.833 279.176,317.232 278.777,317.532 C 278.378,317.83 277.878,318.029 277.278,318.129 C 276.678,318.229 275.979,318.329 275.08,318.329 L 272.08,318.329 C 271.181,318.329 270.381,318.13 269.583,317.731 C 268.884,317.332 268.286,316.832 267.786,316.133 C 267.186,315.234 266.888,314.035 266.888,312.737 C 266.888,312.237 266.888,311.838 266.988,311.338 C 267.088,310.838 267.188,310.338 267.286,309.838 C 267.485,309.338 267.583,308.738 267.883,308.238 C 268.082,307.638 268.38,307.038 268.678,306.339 L 265.578,304.839 C 265.179,305.637 264.879,306.437 264.581,307.136 C 264.283,307.835 264.084,308.534 263.885,309.134 C 263.686,309.734 263.588,310.433 263.488,311.033 C 263.388,311.633 263.388,312.233 263.388,312.831 C 263.388,314.831 263.888,316.629 264.787,318.028 C 265.186,318.628 265.585,319.128 266.185,319.628 C 266.685,320.128 267.285,320.527 267.885,320.827 C 268.485,321.125 269.184,321.425 269.883,321.624 C 270.582,321.823 271.281,321.921 272.081,321.921 L 275.081,321.921 C 276.581,321.921 277.879,321.821 278.879,321.523 C 279.979,321.225 280.777,320.826 281.476,320.127 C 282.175,319.527 282.574,318.729 282.872,317.83 C 283.17,316.931 283.27,315.732 283.27,314.533 C 283.27,313.735 283.071,313.036 282.672,312.536 C 282.273,312.036 281.673,311.637 280.774,311.438 L 275.875,310.14 C 275.875,310.04 275.875,310.04 275.875,309.94 L 275.875,309.741 C 275.875,309.042 275.975,308.444 276.273,307.844 C 276.571,307.244 276.871,306.845 277.371,306.446 C 277.77,306.047 278.37,305.747 278.97,305.548 C 279.57,305.349 280.269,305.251 280.968,305.251 C 281.266,305.251 281.665,305.251 281.963,305.351 C 282.261,305.451 282.66,305.451 283.059,305.65 L 283.958,302.251 C 283.358,302.052 282.858,301.954 282.358,301.854 C 281.859,301.554 281.359,301.554 280.859,301.554 L 280.859,301.554 L 280.859,301.554 M 182.86,301.554 C 181.56,301.554 180.361,301.753 179.263,302.152 C 178.263,302.551 177.364,303.151 176.564,303.85 C 175.865,304.549 175.267,305.347 174.868,306.347 C 174.469,307.246 174.27,308.246 174.27,309.346 C 174.27,309.946 174.368,310.446 174.466,311.046 C 174.564,311.646 174.763,312.246 174.962,312.844 C 175.361,312.944 175.761,313.044 176.16,313.142 C 176.66,313.242 177.059,313.342 177.559,313.541 C 178.059,313.641 178.458,313.741 178.958,313.94 C 179.458,314.04 179.857,314.14 180.257,314.238 C 180.656,314.338 180.956,314.438 181.256,314.536 C 181.556,314.636 181.755,314.636 181.853,314.736 C 181.853,315.435 181.755,315.935 181.556,316.435 C 181.357,316.834 181.057,317.233 180.658,317.533 C 180.259,317.831 179.759,318.03 179.161,318.13 C 178.563,318.23 177.764,318.33 176.964,318.33 L 173.964,318.33 C 173.065,318.33 172.265,318.131 171.465,317.732 C 170.766,317.333 170.168,316.833 169.668,316.134 C 169.07,315.235 168.771,314.036 168.771,312.738 C 168.771,312.238 168.771,311.839 168.869,311.339 C 168.967,310.839 169.065,310.339 169.163,309.839 C 169.362,309.339 169.561,308.739 169.76,308.239 C 169.959,307.639 170.259,307.039 170.559,306.34 L 167.461,304.84 C 167.062,305.638 166.762,306.438 166.462,307.137 C 166.162,307.836 165.963,308.535 165.764,309.135 C 165.565,309.735 165.467,310.434 165.369,311.034 C 165.271,311.634 165.271,312.234 165.271,312.832 C 165.271,314.832 165.771,316.63 166.67,318.029 C 167.069,318.629 167.469,319.129 168.067,319.629 C 168.567,320.129 169.165,320.528 169.763,320.828 C 170.361,321.126 171.06,321.426 171.759,321.625 C 172.458,321.824 173.157,321.922 173.957,321.922 L 176.957,321.922 C 178.457,321.922 179.757,321.822 180.757,321.524 C 181.855,321.226 182.654,320.827 183.353,320.128 C 184.052,319.528 184.452,318.73 184.751,317.831 C 185.051,316.932 185.25,315.733 185.25,314.534 C 185.25,313.736 185.051,313.037 184.651,312.537 C 184.252,312.037 183.553,311.638 182.754,311.439 L 177.855,310.141 C 177.855,310.041 177.855,310.041 177.855,309.941 L 177.855,309.742 C 177.855,309.043 177.953,308.445 178.252,307.845 C 178.552,307.245 178.852,306.846 179.352,306.447 C 179.751,306.048 180.349,305.748 180.947,305.549 C 181.545,305.35 182.244,305.252 182.943,305.252 C 183.243,305.252 183.642,305.252 183.942,305.352 C 184.242,305.452 184.641,305.452 185.041,305.651 L 185.94,302.252 C 185.342,302.053 184.842,301.955 184.342,301.855 C 183.744,301.555 183.345,301.555 182.845,301.555 L 182.845,301.555 M 310.442,295.755 L 308.144,298.154 L 310.543,300.553 L 312.942,298.154 L 310.442,295.755 L 310.442,295.755 M 316.341,295.755 L 314.043,298.154 L 316.341,300.553 L 318.74,298.154 L 316.341,295.755 L 316.341,295.755 M 353.141,294.657 L 350.843,297.056 L 353.242,299.455 L 355.641,297.056 L 353.141,294.657 L 353.141,294.657 M 359.04,294.657 L 356.742,297.056 L 359.141,299.455 L 361.54,297.056 L 359.04,294.657 L 359.04,294.657 M 323.841,293.958 L 321.341,296.458 L 323.941,299.058 L 326.441,296.558 L 323.841,293.958 L 323.841,293.958 M 372.04,293.759 L 372.04,306.958 C 372.04,307.756 372.04,308.455 372.14,309.154 C 372.24,309.754 372.34,310.354 372.438,310.854 C 372.637,311.354 372.836,311.854 373.136,312.152 C 373.434,312.551 373.833,312.851 374.333,313.149 C 374.833,313.348 375.433,313.547 376.231,313.647 C 376.331,313.647 376.53,313.647 376.729,313.647 L 376.729,313.846 L 378.229,313.846 C 378.428,313.846 378.526,313.846 378.725,313.846 C 378.825,313.846 378.825,313.846 378.925,313.846 L 378.925,313.846 C 380.025,313.846 381.025,313.746 381.823,313.646 C 382.923,313.546 383.822,313.347 384.721,313.047 C 385.12,313.147 385.62,313.247 386.12,313.345 C 386.62,313.445 387.22,313.545 387.82,313.643 C 388.42,313.743 389.02,313.743 389.618,313.843 C 389.817,313.843 389.915,313.843 390.114,313.843 L 390.114,313.843 L 411.513,313.843 L 411.513,313.644 C 411.912,313.544 412.212,313.544 412.611,313.444 C 413.111,313.344 413.51,313.145 413.81,312.946 C 414.209,312.747 414.509,312.548 414.807,312.248 C 415.105,311.95 415.405,311.551 415.604,311.253 C 415.803,310.854 415.901,310.554 416.001,310.155 C 416.101,309.756 416.201,309.456 416.201,309.057 C 416.201,308.658 416.301,308.358 416.301,307.959 L 416.301,293.661 L 412.801,293.661 L 412.801,307.959 C 412.801,308.459 412.801,308.757 412.701,309.057 C 412.601,309.355 412.501,309.554 412.403,309.654 C 412.204,309.853 411.805,310.052 411.305,310.152 C 410.805,310.252 410.007,310.352 409.108,310.352 L 408.508,310.352 C 408.608,310.054 408.708,309.655 408.806,309.256 C 408.906,308.857 408.906,308.458 408.906,307.958 C 408.906,306.759 408.707,305.759 408.409,304.961 C 408.111,304.163 407.611,303.563 407.111,303.063 C 406.511,302.563 405.911,302.164 405.212,301.965 C 404.513,301.766 403.814,301.668 403.014,301.668 C 402.514,301.668 402.014,301.768 401.514,301.868 C 401.014,301.968 400.514,302.167 400.115,302.467 C 399.716,302.666 399.216,302.964 398.817,303.262 C 398.418,303.56 398.019,303.959 397.62,304.257 L 397.62,293.657 L 394.02,293.657 L 394.02,308.556 L 392.821,310.354 L 389.622,310.354 C 389.423,310.354 389.224,310.354 389.124,310.354 C 389.323,310.056 389.421,309.857 389.62,309.658 C 389.72,309.459 389.919,309.161 390.019,308.962 C 390.119,308.664 390.219,308.465 390.219,308.167 C 390.219,307.869 390.319,307.569 390.319,307.17 C 390.319,306.471 390.219,305.772 389.921,305.172 C 389.623,304.473 389.323,303.875 388.823,303.375 C 388.323,302.875 387.723,302.476 387.024,302.077 C 386.325,301.779 385.527,301.58 384.729,301.58 C 383.931,301.58 383.131,301.779 382.432,301.978 C 381.733,302.177 381.133,302.677 380.533,303.177 C 380.033,303.677 379.533,304.277 379.235,304.976 C 378.937,305.675 378.738,306.374 378.738,307.073 C 378.738,307.673 378.838,308.273 379.037,308.773 C 379.236,309.273 379.534,309.773 379.933,310.373 C 379.734,310.373 379.535,310.373 379.435,310.373 L 378.736,310.373 L 378.736,310.373 C 377.938,310.373 377.338,310.373 376.939,310.273 C 376.54,310.173 376.141,310.073 375.942,309.775 C 375.743,309.477 375.645,309.177 375.545,308.677 C 375.545,308.278 375.445,307.678 375.445,306.88 L 375.445,293.582 L 372.046,293.781 L 372.046,293.781 M 345.248,293.781 L 345.248,306.98 C 345.248,307.778 345.248,308.477 345.348,309.176 C 345.448,309.776 345.548,310.376 345.646,310.876 C 345.845,311.376 346.044,311.876 346.344,312.174 C 346.642,312.573 347.041,312.873 347.541,313.171 C 348.041,313.37 348.641,313.569 349.439,313.669 C 349.638,313.669 349.837,313.669 350.036,313.669 L 350.036,313.868 L 356.036,313.868 C 356.636,313.868 357.335,313.768 357.935,313.569 C 358.535,313.37 359.135,312.971 359.635,312.572 C 360.135,312.072 360.534,311.572 360.933,310.873 C 361.231,310.174 361.43,309.376 361.43,308.376 C 361.43,308.078 361.43,307.679 361.33,307.28 C 361.33,306.881 361.23,306.482 361.13,305.982 C 361.03,305.583 361.03,305.083 360.93,304.684 C 360.83,304.285 360.73,303.886 360.73,303.487 C 360.63,303.088 360.63,302.788 360.53,302.589 C 360.43,302.39 360.43,302.191 360.43,302.091 L 357.132,303.091 C 357.132,303.191 357.232,303.39 357.232,303.69 C 357.332,303.988 357.332,304.187 357.432,304.586 C 357.532,304.884 357.532,305.184 357.632,305.583 C 357.732,305.881 357.732,306.28 357.832,306.578 C 357.932,306.876 357.932,307.275 357.932,307.573 C 357.932,307.871 358.032,308.07 358.032,308.269 C 358.032,308.769 357.932,309.168 357.832,309.468 C 357.633,309.766 357.535,309.965 357.235,310.065 C 357.036,310.165 356.837,310.265 356.638,310.363 C 356.439,310.363 356.24,310.363 356.14,310.363 L 352.04,310.363 C 351.242,310.363 350.642,310.363 350.243,310.263 C 349.844,310.163 349.445,310.063 349.246,309.765 C 349.047,309.467 348.848,309.167 348.848,308.667 C 348.848,308.268 348.748,307.668 348.748,306.87 L 348.748,293.572 L 345.248,293.771 L 345.248,293.771 M 330.049,293.771 L 330.049,313.97 L 333.549,313.97 L 333.549,293.771 L 330.049,293.771 L 330.049,293.771 M 286.65,293.771 L 286.65,306.97 C 286.65,307.768 286.65,308.467 286.75,309.166 C 286.85,309.766 286.95,310.366 287.048,310.866 C 287.247,311.366 287.446,311.866 287.746,312.164 C 288.044,312.563 288.443,312.863 288.943,313.161 C 289.443,313.36 290.043,313.559 290.841,313.659 C 290.941,313.659 291.14,313.659 291.24,313.659 L 291.24,313.858 C 291.74,313.858 292.24,313.858 292.74,313.858 C 292.84,313.858 292.84,313.858 292.94,313.858 C 293.139,313.858 293.237,313.858 293.436,313.858 L 293.436,313.758 C 293.734,313.758 294.034,313.758 294.332,313.758 C 294.63,314.957 295.13,315.957 295.73,316.957 C 296.429,317.957 297.227,318.755 298.227,319.454 C 299.227,320.153 300.327,320.653 301.427,321.052 C 302.626,321.451 303.825,321.65 305.125,321.65 L 306.225,318.852 C 305.927,318.554 305.627,318.254 305.428,317.855 C 305.229,317.557 305.131,317.158 305.131,316.86 C 305.131,316.461 305.131,316.161 305.131,315.863 C 305.231,315.565 305.331,315.265 305.53,314.967 C 305.729,314.669 306.027,314.47 306.325,314.37 C 306.623,314.171 307.022,314.073 307.421,314.073 L 310.82,314.073 C 311.719,314.073 312.519,313.973 313.218,313.774 C 313.917,313.575 314.515,313.277 315.115,312.777 C 315.514,313.176 316.114,313.476 316.813,313.774 C 317.512,313.973 318.211,314.071 319.011,314.071 L 322.809,314.071 C 323.409,314.071 324.108,313.971 324.708,313.772 C 325.308,313.573 325.908,313.174 326.408,312.775 C 326.908,312.275 327.307,311.775 327.607,311.076 C 327.905,310.377 328.104,309.579 328.104,308.579 C 328.104,308.281 328.104,307.882 328.004,307.483 C 328.004,307.084 327.904,306.685 327.804,306.185 C 327.704,305.786 327.704,305.286 327.604,304.887 C 327.504,304.488 327.504,304.089 327.404,303.69 C 327.304,303.291 327.304,302.991 327.204,302.792 C 327.104,302.593 327.104,302.394 327.104,302.294 L 323.806,303.294 C 323.806,303.394 323.906,303.593 324.006,303.893 C 324.106,304.191 324.106,304.39 324.206,304.688 C 324.306,304.986 324.306,305.286 324.406,305.685 C 324.506,305.983 324.506,306.382 324.606,306.68 C 324.706,306.978 324.706,307.377 324.706,307.675 C 324.706,307.973 324.806,308.172 324.806,308.371 C 324.806,308.871 324.706,309.27 324.606,309.57 C 324.407,309.868 324.309,310.067 324.009,310.167 C 323.81,310.267 323.611,310.367 323.412,310.465 C 323.213,310.465 323.014,310.465 322.914,310.465 L 319.015,310.465 C 318.915,310.465 318.815,310.465 318.517,310.465 C 318.318,310.465 318.02,310.365 317.821,310.265 C 317.622,310.165 317.423,309.966 317.224,309.767 C 317.025,309.568 316.927,309.169 316.927,308.77 L 316.927,304.371 L 313.427,304.371 L 313.427,308.871 C 313.427,309.07 313.427,309.269 313.327,309.468 C 313.327,309.667 313.128,309.866 313.03,309.966 C 312.831,310.165 312.632,310.263 312.233,310.363 C 311.935,310.463 311.435,310.463 310.835,310.463 L 306.037,310.463 L 306.037,310.662 C 305.937,310.662 305.837,310.662 305.739,310.762 C 305.139,310.961 304.639,311.259 304.139,311.557 C 303.639,311.956 303.24,312.355 302.841,312.855 C 302.442,313.355 302.243,313.855 302.044,314.455 C 301.944,315.055 301.844,315.655 301.944,316.253 C 302.044,316.853 302.243,317.453 302.642,318.051 C 302.142,317.852 301.642,317.653 301.142,317.254 C 300.642,316.956 300.142,316.557 299.642,316.057 C 299.142,315.658 298.743,315.158 298.344,314.658 C 297.945,314.158 297.746,313.759 297.547,313.259 C 297.946,313.159 298.345,313.159 298.744,313.059 C 299.143,312.959 299.542,312.859 299.842,312.761 L 299.842,312.761 C 301.041,312.362 302.041,311.963 302.839,311.463 C 303.637,310.963 304.237,310.463 304.636,309.963 C 305.035,309.463 305.335,308.963 305.534,308.363 C 305.733,307.863 305.733,307.363 305.733,306.863 C 305.733,305.964 305.633,305.265 305.335,304.566 C 305.037,303.867 304.737,303.367 304.237,302.867 C 303.737,302.468 303.137,302.069 302.438,301.87 C 301.739,301.671 300.941,301.573 300.143,301.573 C 299.744,301.573 299.244,301.673 298.744,301.773 C 298.244,301.873 297.845,302.072 297.345,302.372 C 296.845,302.67 296.446,303.069 296.047,303.569 C 295.648,304.069 295.249,304.669 294.949,305.467 C 294.849,305.765 294.749,306.164 294.651,306.462 C 294.551,306.76 294.451,307.159 294.353,307.558 C 294.253,307.957 294.253,308.356 294.153,308.755 C 294.153,309.154 294.053,309.654 294.053,310.254 C 293.553,310.254 293.154,310.354 292.755,310.354 C 292.255,310.354 291.755,310.354 291.457,310.254 C 291.058,310.154 290.659,310.054 290.46,309.756 C 290.261,309.458 290.163,309.158 290.063,308.658 C 290.063,308.259 289.963,307.659 289.963,306.861 L 289.963,293.563 L 286.663,293.762 L 286.663,293.762 M 240.363,293.762 L 240.363,306.961 C 240.363,307.759 240.363,308.458 240.461,309.157 C 240.559,309.757 240.657,310.357 240.755,310.857 C 240.954,311.357 241.153,311.857 241.453,312.155 C 241.753,312.554 242.152,312.854 242.652,313.152 C 243.152,313.351 243.75,313.55 244.549,313.65 C 244.647,313.65 244.846,313.65 244.944,313.65 L 244.944,313.849 L 248.643,313.849 C 249.241,313.849 249.94,313.749 250.538,313.55 C 251.136,313.351 251.734,312.952 252.234,312.553 C 252.734,312.053 253.133,311.553 253.433,310.854 C 253.733,310.155 253.932,309.357 253.932,308.357 C 253.932,308.059 253.932,307.66 253.834,307.261 C 253.834,306.862 253.736,306.463 253.638,305.963 C 253.54,305.564 253.54,305.064 253.442,304.665 C 253.344,304.266 253.344,303.867 253.246,303.468 C 253.148,303.069 253.148,302.769 253.05,302.57 C 252.952,302.371 252.952,302.172 252.952,302.072 L 249.652,303.072 C 249.652,303.172 249.75,303.371 249.848,303.671 C 249.946,303.969 249.946,304.168 250.044,304.567 C 250.142,304.865 250.142,305.165 250.24,305.564 C 250.338,305.862 250.338,306.261 250.436,306.559 C 250.534,306.857 250.534,307.256 250.534,307.554 C 250.534,307.852 250.632,308.051 250.632,308.25 C 250.632,308.75 250.534,309.149 250.436,309.449 C 250.237,309.747 250.139,309.946 249.839,310.046 C 249.64,310.146 249.441,310.246 249.242,310.344 C 249.043,310.344 248.844,310.344 248.746,310.344 L 247.148,310.344 C 246.348,310.344 245.75,310.344 245.35,310.244 C 244.951,310.144 244.551,310.044 244.352,309.746 C 244.153,309.448 243.954,309.148 243.954,308.648 C 243.954,308.249 243.856,307.649 243.856,306.851 L 243.856,293.553 L 240.359,293.752 L 240.359,293.752 M 197.261,293.752 L 197.261,313.951 L 200.761,313.951 L 200.761,293.752 L 197.261,293.752 L 197.261,293.752 M 384.56,293.053 L 382.06,295.653 L 384.56,298.253 L 387.06,295.753 L 384.56,293.054 L 384.56,293.054 M 207.661,291.254 L 205.161,293.854 L 207.759,296.454 L 210.259,293.954 L 207.661,291.255 L 207.661,291.255 M 231.661,291.157 L 219.462,296.757 L 219.162,299.956 C 219.462,300.155 219.861,300.554 220.361,300.953 C 220.861,301.352 221.459,301.952 221.959,302.552 C 222.557,303.152 223.155,303.752 223.753,304.451 C 224.351,305.15 224.851,305.748 225.351,306.348 C 225.851,306.948 226.25,307.647 226.55,308.147 C 226.85,308.747 227.049,309.247 227.049,309.646 C 227.049,309.845 226.951,310.044 226.752,310.144 C 226.553,310.244 226.354,310.344 226.155,310.442 C 225.855,310.542 225.656,310.542 225.356,310.542 C 225.056,310.542 224.857,310.542 224.759,310.542 L 218.56,310.542 L 218.56,310.542 L 217.462,310.542 C 217.263,310.542 216.963,310.442 216.663,310.243 C 216.363,310.044 216.063,309.746 215.764,309.347 C 215.464,308.948 215.164,308.549 214.865,308.15 C 214.565,307.751 214.265,307.251 213.966,306.852 L 208.966,299.252 L 206.067,301.151 L 211.067,308.151 C 211.266,308.449 211.364,308.648 211.462,308.847 C 211.56,309.046 211.658,309.144 211.658,309.244 C 211.756,309.344 211.756,309.444 211.756,309.542 C 211.756,309.642 211.756,309.742 211.658,309.84 C 211.56,310.138 211.361,310.337 211.061,310.437 C 210.761,310.636 210.461,310.734 209.961,310.734 C 209.562,310.834 209.062,310.834 208.562,310.734 C 208.062,310.734 207.464,310.634 206.866,310.534 C 206.268,310.434 205.67,310.235 205.072,310.135 C 204.474,309.936 203.876,309.737 203.278,309.538 L 202.278,312.836 C 203.078,313.134 203.777,313.333 204.375,313.433 C 204.973,313.632 205.473,313.73 205.973,313.83 C 206.473,313.93 206.872,314.03 207.172,314.03 C 207.571,314.03 207.871,314.13 208.271,314.13 C 208.771,314.13 209.17,314.13 209.67,314.03 C 210.17,313.93 210.67,313.83 211.17,313.732 C 211.67,313.632 212.069,313.433 212.569,313.133 C 212.968,312.934 213.368,312.636 213.668,312.237 C 214.567,313.035 215.367,313.535 216.367,313.734 L 216.367,313.834 L 224.266,313.834 C 225.165,313.834 225.965,313.734 226.563,313.535 C 227.161,313.336 227.759,313.137 228.159,312.837 C 228.558,312.539 228.858,312.239 229.158,311.941 C 229.357,311.643 229.556,311.343 229.654,311.045 C 229.752,310.846 229.85,310.647 229.85,310.347 C 229.948,310.049 229.948,309.749 229.948,309.35 C 229.948,309.052 229.948,308.752 229.85,308.353 C 229.752,307.954 229.654,307.654 229.556,307.255 C 229.357,306.755 229.158,306.356 228.858,305.856 C 228.558,305.356 228.159,304.856 227.759,304.356 C 227.36,303.856 226.96,303.256 226.46,302.756 C 225.96,302.256 225.561,301.756 225.061,301.256 C 224.561,300.756 224.162,300.256 223.662,299.857 C 223.263,299.458 222.863,299.059 222.464,298.66 L 232.764,294.16 L 231.666,291.161 L 231.666,291.161 M 230.266,287.962 L 219.567,292.562 L 219.368,294.562 L 230.966,289.462 L 230.267,287.962 L 230.267,287.962 M 237.167,355.361 "
         style="fill: #666666; fill-opacity: 1.0; stroke: none"
         visibility="hidden">
        <set
           attributeName="visibility"
           attributeType="CSS"
           to="hidden"
           begin="0s; loop.end"
           dur="0.1"
           fill="none" />
        <set
           attributeName="visibility"
           attributeType="CSS"
           to="visible"
           begin="0.1s; loop.end + 0.1s"
           fill="none" />
        <animateTransform
           attributeName="transform"
           type="translate"
           additive="replace"
           begin="0.1s; loop.end + 0.1s"
           dur="3.1s"
           repeatCount="1"
           fill="none"
           from="0.0 0.0"
           to="0.0 0.0"
           calcMode="discrete" />
        <animateTransform
           attributeName="transform"
           type="translate"
           additive="sum"
           begin="0.1s; loop.end + 0.1s"
           dur="3.1s"
           repeatCount="1"
           fill="none"
           from="-290.7265 -324.106"
           to="-290.7265 -324.106"
           calcMode="discrete" />
      </path>
    </g>
    <g
       id="id760faaa37c9064b069a3231b"
       visibility="hidden">
      <set
         attributeName="visibility"
         attributeType="CSS"
         to="hidden"
         begin="0s; loop.end"
         dur="0.5"
         fill="none" />
      <set
         attributeName="visibility"
         attributeType="CSS"
         to="visible"
         begin="0.5s; loop.end + 0.5s"
         fill="none" />
      <animateTransform
         attributeName="transform"
         type="translate"
         additive="replace"
         begin="0.5s; loop.end + 0.5s"
         dur="0.8s"
         repeatCount="1"
         fill="none"
         from="125.678 127.829"
         to="125.678 127.829"
         calcMode="discrete" />
      <animateTransform
         attributeName="transform"
         type="translate"
         additive="replace"
         begin="1.3s; loop.end + 1.3s"
         dur="1.2s"
         repeatCount="1"
         fill="none"
         from="125.678 127.829"
         to="125.678 127.829"
         calcMode="discrete" />
      <animateTransform
         attributeName="transform"
         type="translate"
         additive="replace"
         begin="2.5s; loop.end + 2.5s"
         dur="0.7000000000000002s"
         repeatCount="1"
         fill="none"
         from="125.678 127.829"
         to="125.678 127.829"
         calcMode="discrete" />
      <animate
         attributeType="CSS"
         attributeName="opacity"
         begin="0.5s; loop.end + 0.5s"
         dur="0.8s"
         repeatCount="1"
         fill="none"
         from="0.0"
         to="1.0" />
      <animate
         attributeType="CSS"
         attributeName="opacity"
         begin="1.3s; loop.end + 1.3s"
         dur="1.2s"
         repeatCount="1"
         fill="none"
         from="1.0"
         to="1.0"
         calcMode="discrete" />
      <animate
         attributeType="CSS"
         attributeName="opacity"
         begin="2.5s; loop.end + 2.5s"
         dur="0.7000000000000002s"
         repeatCount="1"
         fill="none"
         from="1.0"
         to="0.0" />
      <animateTransform
         attributeName="transform"
         type="translate"
         additive="sum"
         begin="0.5s; loop.end + 0.5s"
         dur="0.8s"
         repeatCount="1"
         fill="none"
         from="-0.0 -0.0"
         to="-0.0 -0.0"
         calcMode="discrete" />
      <animateTransform
         attributeName="transform"
         type="translate"
         additive="sum"
         begin="1.3s; loop.end + 1.3s"
         dur="1.2s"
         repeatCount="1"
         fill="none"
         from="-0.0 -0.0"
         to="-0.0 -0.0"
         calcMode="discrete" />
      <animateTransform
         attributeName="transform"
         type="translate"
         additive="sum"
         begin="2.5s; loop.end + 2.5s"
         dur="0.7000000000000002s"
         repeatCount="1"
         fill="none"
         from="-0.0 -0.0"
         to="-0.0 -0.0"
         calcMode="discrete" />
      <path
         id="id23fe5a54bd34a70306124d8b"
         d="M 285.799,64.599 C 281.1,64.599 275.6,65.398 269.302,66.997 C 256.903,70.194 245.305,76.094 234.606,84.693 C 231.806,86.992 224.407,94.091 223.208,95.788 C 222.809,96.288 221.711,97.688 220.711,98.987 C 213.812,107.586 208.312,117.384 204.613,127.983 C 200.113,140.78 198.313,151.979 198.512,165.678 C 198.711,175.077 199.611,181.977 201.91,190.876 C 205.71,205.474 212.609,218.873 222.308,230.673 C 223.808,232.572 224.108,232.771 227.408,236.17 C 230.107,238.869 230.907,239.669 230.907,239.27 C 230.907,239.071 230.809,238.973 228.711,235.973 C 225.613,231.473 221.714,224.074 219.616,218.875 C 214.917,206.976 212.517,194.676 212.517,182.176 C 212.517,176.676 212.716,174.277 213.415,169.179 C 214.415,161.879 217.013,151.379 219.513,144.281 C 223.712,132.582 233.612,119.882 246.411,109.882 C 247.11,109.283 248.11,108.484 248.51,108.084 C 249.51,107.084 254.209,104.084 257.307,102.285 C 265.506,97.686 273.705,95.387 277.904,96.587 C 279.904,97.186 283.504,100.086 285.104,102.385 C 286.604,104.582 287.104,106.181 287.104,108.48 C 287.104,114.38 281.806,120.179 268.006,129.679 C 262.307,133.578 260.709,134.777 257.709,137.277 C 248.31,145.077 241.91,153.276 236.511,164.475 C 230.011,177.975 227.612,190.775 229.411,201.474 C 229.911,204.173 231.211,209.372 232.211,212.372 C 235.11,221.271 239.01,228.671 244.209,235.269 C 246.009,237.569 250.908,242.569 253.107,244.268 C 258.504,248.568 265.304,252.267 271.602,254.166 C 274.9,255.166 276.2,255.466 280.599,256.164 C 281.397,256.264 283.997,256.264 284.396,256.164 C 285.194,255.965 284.795,255.565 282.695,254.666 C 270.695,249.467 261.195,240.369 256.897,229.771 C 254.397,223.771 253.498,218.372 253.697,210.872 C 253.795,206.173 254.194,203.373 255.194,198.775 C 257.391,189.076 261.09,182.877 269.789,174.279 C 275.587,168.58 280.587,164.58 294.587,154.68 C 307.687,145.38 312.886,141.38 318.085,136.782 C 330.484,125.683 335.984,115.084 335.186,104.084 C 334.388,93.886 328.989,84.087 320.29,77.187 C 311.891,70.388 301.992,66.388 290.293,64.888 C 288.794,64.691 287.294,64.592 285.794,64.592 M 285.794,64.592 "
         style="fill: #6e072e; fill-opacity: 1.0; stroke: none"
         visibility="hidden">
        <set
           attributeName="visibility"
           attributeType="CSS"
           to="hidden"
           begin="0s; loop.end"
           dur="0.5"
           fill="none" />
        <set
           attributeName="visibility"
           attributeType="CSS"
           to="visible"
           begin="0.5s; loop.end + 0.5s"
           fill="none" />
        <animateTransform
           attributeName="transform"
           type="translate"
           additive="replace"
           begin="0.5s; loop.end + 0.5s"
           dur="2.7s"
           repeatCount="1"
           fill="none"
           from="0.0 0.0"
           to="0.0 0.0"
           calcMode="discrete" />
        <animateTransform
           attributeName="transform"
           type="translate"
           additive="sum"
           begin="0.5s; loop.end + 0.5s"
           dur="2.7s"
           repeatCount="1"
           fill="none"
           from="-266.8755 -160.421"
           to="-266.8755 -160.421"
           calcMode="discrete" />
      </path>
    </g>
    <g
       id="id2bf6397cd3f59dc30f93233e"
       visibility="hidden">
      <set
         attributeName="visibility"
         attributeType="CSS"
         to="hidden"
         begin="0s; loop.end"
         dur="0.3"
         fill="none" />
      <set
         attributeName="visibility"
         attributeType="CSS"
         to="visible"
         begin="0.3s; loop.end + 0.3s"
         fill="none" />
      <animateTransform
         attributeName="transform"
         type="translate"
         additive="replace"
         begin="0.3s; loop.end + 0.3s"
         dur="0.8s"
         repeatCount="1"
         fill="none"
         from="163.203 136.011"
         to="163.203 136.011"
         calcMode="discrete" />
      <animateTransform
         attributeName="transform"
         type="translate"
         additive="replace"
         begin="1.1s; loop.end + 1.1s"
         dur="1.0999999999999996s"
         repeatCount="1"
         fill="none"
         from="163.203 136.011"
         to="163.203 136.011"
         calcMode="discrete" />
      <animateTransform
         attributeName="transform"
         type="translate"
         additive="replace"
         begin="2.1999999999999997s; loop.end + 2.1999999999999997s"
         dur="0.8000000000000003s"
         repeatCount="1"
         fill="none"
         from="163.203 136.011"
         to="163.203 136.011"
         calcMode="discrete" />
      <animateTransform
         attributeName="transform"
         type="translate"
         additive="replace"
         begin="3s; loop.end + 3s"
         dur="0.20000000000000018s"
         repeatCount="1"
         fill="none"
         from="163.203 136.011"
         to="163.203 136.011"
         calcMode="discrete" />
      <animate
         attributeType="CSS"
         attributeName="opacity"
         begin="0.3s; loop.end + 0.3s"
         dur="0.8s"
         repeatCount="1"
         fill="none"
         from="0.0"
         to="1.0" />
      <animate
         attributeType="CSS"
         attributeName="opacity"
         begin="1.1s; loop.end + 1.1s"
         dur="1.0999999999999996s"
         repeatCount="1"
         fill="none"
         from="1.0"
         to="1.0"
         calcMode="discrete" />
      <animate
         attributeType="CSS"
         attributeName="opacity"
         begin="2.1999999999999997s; loop.end + 2.1999999999999997s"
         dur="0.8000000000000003s"
         repeatCount="1"
         fill="none"
         from="1.0"
         to="0.0" />
      <animate
         attributeType="CSS"
         attributeName="opacity"
         begin="3s; loop.end + 3s"
         dur="0.20000000000000018s"
         repeatCount="1"
         fill="none"
         from="0.0"
         to="0.0"
         calcMode="discrete" />
      <animateTransform
         attributeName="transform"
         type="translate"
         additive="sum"
         begin="0.3s; loop.end + 0.3s"
         dur="0.8s"
         repeatCount="1"
         fill="none"
         from="-0.0 -0.0"
         to="-0.0 -0.0"
         calcMode="discrete" />
      <animateTransform
         attributeName="transform"
         type="translate"
         additive="sum"
         begin="1.1s; loop.end + 1.1s"
         dur="1.0999999999999996s"
         repeatCount="1"
         fill="none"
         from="-0.0 -0.0"
         to="-0.0 -0.0"
         calcMode="discrete" />
      <animateTransform
         attributeName="transform"
         type="translate"
         additive="sum"
         begin="2.1999999999999997s; loop.end + 2.1999999999999997s"
         dur="0.8000000000000003s"
         repeatCount="1"
         fill="none"
         from="-0.0 -0.0"
         to="-0.0 -0.0"
         calcMode="discrete" />
      <animateTransform
         attributeName="transform"
         type="translate"
         additive="sum"
         begin="3s; loop.end + 3s"
         dur="0.20000000000000018s"
         repeatCount="1"
         fill="none"
         from="-0.0 -0.0"
         to="-0.0 -0.0"
         calcMode="discrete" />
      <path
         id="idd265367dd9f2772810d2f7b6"
         d="M 334.5,82.599 C 334.202,82.599 334.3,82.796 335.4,84.196 C 338,87.596 340.199,91.895 341.398,95.895 C 342.597,99.895 342.895,101.895 342.995,105.895 C 343.095,111.694 342.595,115.493 341.196,119.893 C 339.898,123.793 338.398,126.592 335.398,130.59 C 330.1,137.688 323.3,143.587 314.8,148.286 C 308.101,151.985 290.601,163.184 285.202,167.184 C 281.303,170.083 275.404,175.782 272.005,179.782 C 266.707,186.181 264.207,191.181 262.508,199.38 C 259.908,211.38 260.807,222.38 265.307,231.579 C 268.807,238.778 273.706,244.278 280.905,249.376 C 284.405,251.775 288.005,253.474 291.105,254.173 C 294.804,254.973 295.703,254.573 292.703,253.475 C 289.103,252.276 286.204,250.276 283.104,247.077 C 280.905,244.777 280.206,243.777 278.807,241.078 C 278.307,240.078 277.509,238.679 277.209,237.98 C 274.709,233.281 273.411,227.683 273.311,220.883 C 273.211,215.785 273.711,212.187 275.011,207.287 C 277.91,196.189 283.809,186.79 292.508,179.391 C 295.508,176.793 296.707,175.994 310.707,167.396 C 317.505,163.197 325.904,157.498 328.904,155.198 C 330.603,153.799 334.901,149.701 336.501,147.701 C 338.799,145.002 341.599,140.502 342.798,137.602 C 342.997,137.203 343.396,136.303 343.694,135.604 C 345.093,132.506 346.492,127.407 347.292,122.207 C 347.691,119.707 347.89,111.207 347.59,108.408 C 347.191,104.309 346.292,100.01 345.292,97.61 C 343.692,93.511 340.894,89.311 336.594,84.614 C 335.195,83.215 334.695,82.715 334.496,82.616 M 334.496,82.616 "
         style="fill: #6e072e; fill-opacity: 1.0; stroke: none"
         visibility="hidden">
        <set
           attributeName="visibility"
           attributeType="CSS"
           to="hidden"
           begin="0s; loop.end"
           dur="0.3"
           fill="none" />
        <set
           attributeName="visibility"
           attributeType="CSS"
           to="visible"
           begin="0.3s; loop.end + 0.3s"
           fill="none" />
        <animateTransform
           attributeName="transform"
           type="translate"
           additive="replace"
           begin="0.3s; loop.end + 0.3s"
           dur="2.9000000000000004s"
           repeatCount="1"
           fill="none"
           from="0.0 0.0"
           to="0.0 0.0"
           calcMode="discrete" />
        <animateTransform
           attributeName="transform"
           type="translate"
           additive="sum"
           begin="0.3s; loop.end + 0.3s"
           dur="2.9000000000000004s"
           repeatCount="1"
           fill="none"
           from="-304.4009 -168.6024"
           to="-304.4009 -168.6024"
           calcMode="discrete" />
      </path>
    </g>
    <g
       id="ide65e8d41bbc5a6f66b7262a8"
       visibility="hidden">
      <set
         attributeName="visibility"
         attributeType="CSS"
         to="hidden"
         begin="0s; loop.end"
         dur="0.1"
         fill="none" />
      <set
         attributeName="visibility"
         attributeType="CSS"
         to="visible"
         begin="0.1s; loop.end + 0.1s"
         fill="none" />
      <animateTransform
         attributeName="transform"
         type="translate"
         additive="replace"
         begin="0.1s; loop.end + 0.1s"
         dur="0.8s"
         repeatCount="1"
         fill="none"
         from="191.322 141.674"
         to="191.322 141.674"
         calcMode="discrete" />
      <animateTransform
         attributeName="transform"
         type="translate"
         additive="replace"
         begin="0.9s; loop.end + 0.9s"
         dur="1.1s"
         repeatCount="1"
         fill="none"
         from="191.322 141.674"
         to="191.322 141.674"
         calcMode="discrete" />
      <animateTransform
         attributeName="transform"
         type="translate"
         additive="replace"
         begin="2s; loop.end + 2s"
         dur="0.8000000000000003s"
         repeatCount="1"
         fill="none"
         from="191.322 141.674"
         to="191.322 141.674"
         calcMode="discrete" />
      <animateTransform
         attributeName="transform"
         type="translate"
         additive="replace"
         begin="2.8000000000000003s; loop.end + 2.8000000000000003s"
         dur="0.3999999999999999s"
         repeatCount="1"
         fill="none"
         from="191.322 141.674"
         to="191.322 141.674"
         calcMode="discrete" />
      <animate
         attributeType="CSS"
         attributeName="opacity"
         begin="0.1s; loop.end + 0.1s"
         dur="0.8s"
         repeatCount="1"
         fill="none"
         from="0.0"
         to="1.0" />
      <animate
         attributeType="CSS"
         attributeName="opacity"
         begin="0.9s; loop.end + 0.9s"
         dur="1.1s"
         repeatCount="1"
         fill="none"
         from="1.0"
         to="1.0"
         calcMode="discrete" />
      <animate
         attributeType="CSS"
         attributeName="opacity"
         begin="2s; loop.end + 2s"
         dur="0.8000000000000003s"
         repeatCount="1"
         fill="none"
         from="1.0"
         to="0.0" />
      <animate
         attributeType="CSS"
         attributeName="opacity"
         begin="2.8000000000000003s; loop.end + 2.8000000000000003s"
         dur="0.3999999999999999s"
         repeatCount="1"
         fill="none"
         from="0.0"
         to="0.0"
         calcMode="discrete" />
      <animateTransform
         attributeName="transform"
         type="translate"
         additive="sum"
         begin="0.1s; loop.end + 0.1s"
         dur="0.8s"
         repeatCount="1"
         fill="none"
         from="-0.0 -0.0"
         to="-0.0 -0.0"
         calcMode="discrete" />
      <animateTransform
         attributeName="transform"
         type="translate"
         additive="sum"
         begin="0.9s; loop.end + 0.9s"
         dur="1.1s"
         repeatCount="1"
         fill="none"
         from="-0.0 -0.0"
         to="-0.0 -0.0"
         calcMode="discrete" />
      <animateTransform
         attributeName="transform"
         type="translate"
         additive="sum"
         begin="2s; loop.end + 2s"
         dur="0.8000000000000003s"
         repeatCount="1"
         fill="none"
         from="-0.0 -0.0"
         to="-0.0 -0.0"
         calcMode="discrete" />
      <animateTransform
         attributeName="transform"
         type="translate"
         additive="sum"
         begin="2.8000000000000003s; loop.end + 2.8000000000000003s"
         dur="0.3999999999999999s"
         repeatCount="1"
         fill="none"
         from="-0.0 -0.0"
         to="-0.0 -0.0"
         calcMode="discrete" />
      <path
         id="id6587772423bfab3e5dedce97"
         d="M 350.299,93.199 C 350.201,93.199 350.201,93.298 350.299,93.199 C 350.299,93.498 350.698,94.498 351.198,95.695 C 354.198,102.393 355.496,108.793 355.496,116.193 C 355.496,123.391 354.097,130.49 351.597,136.49 C 348.698,143.588 342.898,150.987 336.699,155.886 C 335.901,156.585 334.202,157.784 333.102,158.784 C 330.304,160.983 326.905,163.283 322.905,165.482 C 319.206,167.58 307.206,174.678 305.507,175.776 C 301.209,178.675 296.409,182.675 293.909,185.475 C 291.21,188.573 288.112,193.472 286.312,197.57 C 283.514,203.969 282.214,209.969 282.015,217.067 C 281.816,224.665 282.916,230.165 285.916,236.263 C 291.115,246.861 300.213,254.06 309.912,255.158 C 311.912,255.357 317.21,255.357 319.21,255.158 C 323.508,254.658 327.508,253.759 329.508,252.859 C 330.108,252.559 331.307,252.059 332.006,251.759 C 333.705,251.06 338.404,248.76 339.904,247.861 C 341.702,246.763 346.901,242.763 349.3,240.665 C 362.4,229.067 372.099,214.368 377.699,197.469 C 379.997,190.57 381.097,185.371 382.097,177.672 C 382.895,171.273 383.294,161.273 382.895,156.273 C 382.696,152.973 382.098,148.274 381.998,147.974 C 381.799,147.575 381.4,148.374 381.3,149.573 C 380.601,156.772 377.101,168.672 372.803,178.27 C 366.803,191.77 358.303,205.169 349.703,214.868 C 346.804,218.168 338.605,226.067 336.706,227.467 C 334.007,229.467 331.308,230.666 327.109,231.666 C 325.311,232.065 324.612,232.163 322.012,232.163 C 318.412,232.163 316.713,231.863 314.113,230.563 C 310.714,228.965 307.614,225.666 306.715,222.866 C 306.316,221.667 306.216,216.767 306.514,214.468 C 307.014,210.269 311.213,200.769 315.011,195.07 C 318.511,189.871 323.611,184.571 329.111,180.372 C 329.909,179.774 331.409,178.475 332.209,177.675 C 333.108,176.875 335.507,174.676 337.607,172.876 C 342.607,168.477 345.107,165.879 348.405,161.579 C 352.604,156.079 353.902,153.981 356.002,149.981 C 358.8,144.282 360.6,138.583 361.398,132.183 C 361.797,129.284 361.797,122.485 361.499,119.886 C 360.6,112.986 358.901,107.187 356.002,101.388 C 354.204,98.191 350.704,93.092 350.305,93.191 M 350.305,93.191 "
         style="fill: #6e072e; fill-opacity: 1.0; stroke: none"
         visibility="hidden">
        <set
           attributeName="visibility"
           attributeType="CSS"
           to="hidden"
           begin="0s; loop.end"
           dur="0.1"
           fill="none" />
        <set
           attributeName="visibility"
           attributeType="CSS"
           to="visible"
           begin="0.1s; loop.end + 0.1s"
           fill="none" />
        <animateTransform
           attributeName="transform"
           type="translate"
           additive="replace"
           begin="0.1s; loop.end + 0.1s"
           dur="3.1s"
           repeatCount="1"
           fill="none"
           from="0.0 0.0"
           to="0.0 0.0"
           calcMode="discrete" />
        <animateTransform
           attributeName="transform"
           type="translate"
           additive="sum"
           begin="0.1s; loop.end + 0.1s"
           dur="3.1s"
           repeatCount="1"
           fill="none"
           from="-332.5191 -174.2657"
           to="-332.5191 -174.2657"
           calcMode="discrete" />
      </path>
    </g>
  </g>
  <script
     id="script29"><![CDATA[
      var document = null;
      var root = null;
      var scheduler = null;
      var schedulerEnabled = ((navigator.userAgent.indexOf('Safari') != -1) && (navigator.userAgent.indexOf('Chrome') == -1)) ||
                             (navigator.userAgent.match(/(iPod|iPhone|iPad)/) && navigator.userAgent.match(/AppleWebKit/) && !navigator.userAgent.match('CriOS'));
      var currentEvent = 0;
      var previousTime = 0;
      var nextTime = 0;

      function initialize(event)
      {
         document = event.target.ownerDocument;
         root = document.documentElement;
         if (schedulerEnabled && events.length > 0) {
             var event = events[currentEvent];
             while (currentEvent < events.length && events[currentEvent]["time"] == 0) { 
                 processEvent();
                 currentEvent += 1;
             }
             if (currentEvent < events.length) {
                 var time = events[currentEvent]["time"];
                 nextTime = time;
                 scheduler = setTimeout(processSchedule, time - previousTime);
             }
         }
      };

      function freeze()
      {
         root.pauseAnimations();
      };

      function processSchedule()
      {
         if (currentEvent < events.length) {
             var event = events[currentEvent];
             previousTime = nextTime;
             while (currentEvent < events.length && events[currentEvent]["time"] == nextTime) { 
                 processEvent();
                 currentEvent += 1;
             }
             if (currentEvent < events.length) {
                 var time = events[currentEvent]["time"];
                 nextTime = time;
                 scheduler = setTimeout(processSchedule, time - previousTime);
             }
         }
      };

      function processEvent()
      {
         var event = events[currentEvent];
         if ("audio_start" in event) { 
             event = event["audio_start"];
             var id = event["id"];
             var audio = document.getElementById(id);
             if (audio != undefined)
                 audio.play();
         }
         else if ("audio_stop" in event) { 
             event = event["audio_stop"];
             var id = event["id"];
             var audio = document.getElementById(id);
             if (audio != undefined) {
                 audio.pause();
                 audio.currentTime = 0;
             }
         }
         else if ("pause" in event) { 
             event = event["pause"];
             freeze();
         }
      };

    var events = [{"time": 2850,"pause": {}}]
]]></script>
  <rect
     id="looper"
     x="0"
     y="0"
     width="1"
     height="1"
     style="fill: none; stroke: none">
    <set
       id="loop"
       attributeName="x"
       to="0"
       begin="0s; loop.end"
       dur="3.2s"
       fill="freeze" />
  </rect>
</svg>