<?xml version="1.0" encoding="UTF-8" standalone="no"?>
<svg
   xmlns:dc="http://purl.org/dc/elements/1.1/"
   xmlns:cc="http://creativecommons.org/ns#"
   xmlns:rdf="http://www.w3.org/1999/02/22-rdf-syntax-ns#"
   xmlns:svg="http://www.w3.org/2000/svg"
   xmlns="http://www.w3.org/2000/svg"
   xmlns:sodipodi="http://sodipodi.sourceforge.net/DTD/sodipodi-0.dtd"
   xmlns:inkscape="http://www.inkscape.org/namespaces/inkscape"
   version="1.1"
   viewBox="0 0 640 360"
   preserveAspectRatio="xMidYMid meet"
   stroke-linejoin="round"
   stroke-linecap="round"
   onload="initialize(evt)"
   id="svg30"
   sodipodi:docname="Unnamed_Project (3).svg"
   inkscape:version="0.92.2 (5c3e80d, 2017-08-06)">
  <metadata
     id="metadata34">
    <rdf:RDF>
      <cc:Work
         rdf:about="">
        <dc:format>image/svg+xml</dc:format>
        <dc:type
           rdf:resource="http://purl.org/dc/dcmitype/StillImage" />
      </cc:Work>
    </rdf:RDF>
  </metadata>
  <sodipodi:namedview
     pagecolor="#f2f2f2"
     bordercolor="#6E072E"
     borderopacity="1"
     objecttolerance="10"
     gridtolerance="10"
     guidetolerance="10"
     inkscape:pageopacity="0"
     inkscape:pageshadow="2"
     inkscape:window-width="1920"
     inkscape:window-height="1001"
     id="namedview32"
     showgrid="false"
     inkscape:zoom="1.4981825"
     inkscape:cx="134.9788"
     inkscape:cy="237.2674"
     inkscape:window-x="-9"
     inkscape:window-y="-9"
     inkscape:window-maximized="1"
     inkscape:current-layer="idb013e7fffdfc5cdac62d8602" />
  <!--SVG SMIL Animation Export (c) 2017 Animatron INC-->
  <!--Version 1.0 by squared9-->
  <defs
     id="defs5">
    <mask
       id="canvasMask"
       maskUnits="userSpaceOnUse">
      <rect
         x="0"
         y="0"
         width="640px"
         height="360px"
         fill="#f2f2f2"
         stroke="none"
         id="rect2" />
    </mask>
  </defs>
  <rect
     fill="rgba(255,255,255,0.0)"
     stroke="none"
     x="0"
     y="0"
     width="640px"
     height="360px"
     id="rect7" />
  <g
     id="idb013e7fffdfc5cdac62d8602"
     mask="url(#canvasMask)">
    <g
       id="id75ce6c6b42ddbfa6a20df4c5"
       visibility="hidden">
      <set
         attributeName="visibility"
         attributeType="CSS"
         to="hidden"
         begin="0s; loop.end"
         dur="1"
         fill="none" />
      <set
         attributeName="visibility"
         attributeType="CSS"
         to="visible"
         begin="1s; loop.end + 1s"
         fill="none" />
      <animateTransform
         attributeName="transform"
         type="translate"
         additive="replace"
         begin="1s; loop.end + 1s"
         dur="1.5s"
         repeatCount="1"
         fill="none"
         from="297.689 178.84"
         to="297.689 178.84"
         calcMode="discrete"
         keyTimes="0;1"
         keySplines="0.66 0.0 0.34 1.0" />
      <animateTransform
         attributeName="transform"
         type="translate"
         additive="replace"
         begin="2.5s; loop.end + 2.5s"
         dur="1.5s"
         repeatCount="1"
         fill="none"
         from="297.689 178.84"
         to="297.689 178.84"
         calcMode="discrete" />
      <animateTransform
         attributeName="transform"
         type="rotate"
         additive="sum"
         begin="1s; loop.end + 1s"
         dur="1.5s"
         repeatCount="1"
         fill="none"
         from="0.0 0.0 0.0"
         to="0.0 0.0 0.0"
         calcMode="discrete" />
      <animateTransform
         attributeName="transform"
         type="rotate"
         additive="sum"
         begin="2.5s; loop.end + 2.5s"
         dur="1.5s"
         repeatCount="1"
         fill="none"
         from="0.0 0.0 0.0"
         to="0.0 0.0 0.0"
         calcMode="discrete" />
      <animateTransform
         attributeName="transform"
         type="scale"
         additive="sum"
         begin="1s; loop.end + 1s"
         dur="1.5s"
         repeatCount="1"
         fill="none"
         from="3.7795276641845703 3.7795276641845703"
         to="3.7795276641845703 3.7795276641845703"
         calcMode="discrete" />
      <animateTransform
         attributeName="transform"
         type="scale"
         additive="sum"
         begin="2.5s; loop.end + 2.5s"
         dur="1.5s"
         repeatCount="1"
         fill="none"
         from="3.7795276641845703 3.7795276641845703"
         to="3.7795276641845703 3.7795276641845703"
         calcMode="discrete" />
      <animate
         attributeType="CSS"
         attributeName="opacity"
         begin="1s; loop.end + 1s"
         dur="1.5s"
         repeatCount="1"
         fill="none"
         from="0.0"
         to="1.0"
         calcMode="spline"
         keyTimes="0;1"
         keySplines="0.66 0.0 0.34 1.0" />
      <animate
         attributeType="CSS"
         attributeName="opacity"
         begin="2.5s; loop.end + 2.5s"
         dur="1.5s"
         repeatCount="1"
         fill="none"
         from="1.0"
         to="0.0"
         calcMode="spline"
         keyTimes="0;1"
         keySplines="0.66 0.0 0.34 1.0" />
      <animateTransform
         attributeName="transform"
         type="translate"
         additive="sum"
         begin="1s; loop.end + 1s"
         dur="1.5s"
         repeatCount="1"
         fill="none"
         from="-0.0 -0.0"
         to="-0.0 -0.0"
         calcMode="discrete" />
      <animateTransform
         attributeName="transform"
         type="translate"
         additive="sum"
         begin="2.5s; loop.end + 2.5s"
         dur="1.5s"
         repeatCount="1"
         fill="none"
         from="-0.0 -0.0"
         to="-0.0 -0.0"
         calcMode="discrete" />
      <path
         id="id7b14a36dbbdbaa87eb6e94b1"
         d="M 98.43,33.789 C 96.42,33.789 94.071,34.13 91.365,34.816 C 86.058,36.163 81.093,38.702 76.548,42.388 C 75.359,43.354 72.206,46.424 71.688,47.122 C 71.532,47.332 71.049,47.947 70.613,48.486 C 67.657,52.153 65.326,56.336 63.72,60.862 C 61.784,66.309 61.008,71.119 61.117,76.974 C 61.193,80.999 61.589,83.917 62.579,87.742 C 64.196,93.989 67.137,99.722 71.308,104.759 C 71.963,105.551 72.062,105.656 73.492,107.109 C 74.636,108.273 75,108.589 75,108.422 C 75,108.347 74.963,108.289 74.075,107.002 C 72.744,105.072 71.079,101.935 70.192,99.687 C 68.192,94.615 67.179,89.343 67.179,84.012 C 67.179,81.681 67.248,80.617 67.55,78.462 C 67.988,75.339 69.093,70.871 70.177,67.843 C 71.973,62.831 76.2,57.426 81.671,53.14 C 81.984,52.894 82.39,52.553 82.572,52.383 C 83.013,51.969 85.002,50.656 86.316,49.913 C 89.808,47.938 93.336,46.966 95.102,47.49 C 95.948,47.74 97.514,48.996 98.164,49.946 C 98.801,50.875 99.025,51.554 99.024,52.547 C 99.017,55.074 96.775,57.564 90.864,61.605 C 88.411,63.281 87.731,63.78 86.462,64.831 C 82.431,68.174 79.692,71.686 77.385,76.469 C 74.611,82.217 73.566,87.697 74.367,92.296 C 74.567,93.446 75.125,95.649 75.542,96.932 C 76.772,100.718 78.437,103.904 80.652,106.708 C 81.417,107.676 83.522,109.804 84.454,110.549 C 86.755,112.389 89.676,113.958 92.34,114.786 C 93.755,115.224 94.321,115.349 96.188,115.633 C 96.537,115.685 97.624,115.686 97.821,115.634 C 98.179,115.541 98.002,115.386 97.078,114.987 C 91.937,112.769 87.909,108.878 86.057,104.341 C 85.009,101.774 84.621,99.467 84.696,96.279 C 84.744,94.269 84.891,93.081 85.335,91.128 C 86.276,86.988 87.863,84.32 91.557,80.677 C 94.034,78.235 96.162,76.549 102.148,72.283 C 107.732,68.303 109.962,66.597 112.171,64.617 C 117.464,59.873 119.816,55.365 119.461,50.652 C 119.133,46.305 116.817,42.104 113.117,39.142 C 109.509,36.253 105.309,34.531 100.305,33.888 C 99.712,33.812 99.08,33.776 98.41,33.776 L 98.41,33.776 M 98.41,33.776 "
         style="fill: #6E072E; fill-opacity: 1.0; stroke: none"
         visibility="hidden">
        <set
           attributeName="visibility"
           attributeType="CSS"
           to="hidden"
           begin="0s; loop.end"
           dur="1"
           fill="none" />
        <set
           attributeName="visibility"
           attributeType="CSS"
           to="visible"
           begin="1s; loop.end + 1s"
           fill="none" />
        <animateTransform
           attributeName="transform"
           type="translate"
           additive="replace"
           begin="1s; loop.end + 1s"
           dur="3s"
           repeatCount="1"
           fill="none"
           from="0.0 0.0"
           to="0.0 0.0"
           calcMode="discrete" />
        <animateTransform
           attributeName="transform"
           type="translate"
           additive="sum"
           begin="1s; loop.end + 1s"
           dur="3s"
           repeatCount="1"
           fill="none"
           from="-90.3054 -74.7392"
           to="-90.3054 -74.7392"
           calcMode="discrete" />
      </path>
    </g>
    <g
       id="idcb94f93687e0102129c874f9"
       visibility="hidden">
      <set
         attributeName="visibility"
         attributeType="CSS"
         to="hidden"
         begin="0s; loop.end"
         dur="0.5"
         fill="none" />
      <set
         attributeName="visibility"
         attributeType="CSS"
         to="visible"
         begin="0.5s; loop.end + 0.5s"
         fill="none" />
      <animateTransform
         attributeName="transform"
         type="translate"
         additive="replace"
         begin="0.5s; loop.end + 0.5s"
         dur="1.5s"
         repeatCount="1"
         fill="none"
         from="359.0 192.0"
         to="358.347 192.006"
         calcMode="spline"
         keyTimes="0;1"
         keySplines="0.66 0.0 0.34 1.0" />
      <animateTransform
         attributeName="transform"
         type="translate"
         additive="replace"
         begin="2s; loop.end + 2s"
         dur="1.5s"
         repeatCount="1"
         fill="none"
         from="358.346 192.006"
         to="358.346 192.006"
         calcMode="discrete"
         keyTimes="0;1"
         keySplines="0.66 0.0 0.34 1.0" />
      <animateTransform
         attributeName="transform"
         type="translate"
         additive="replace"
         begin="3.5s; loop.end + 3.5s"
         dur="0.5s"
         repeatCount="1"
         fill="none"
         from="358.346 192.006"
         to="358.346 192.006"
         calcMode="discrete"
         keyTimes="0;1"
         keySplines="0.3333333333335809 0.0 0.6E072E6E072E9142 0.33333333333344445" />
      <animateTransform
         attributeName="transform"
         type="rotate"
         additive="sum"
         begin="0.5s; loop.end + 0.5s"
         dur="1.5s"
         repeatCount="1"
         fill="none"
         from="0.0 0.0 0.0"
         to="0.0 0.0 0.0"
         calcMode="discrete" />
      <animateTransform
         attributeName="transform"
         type="rotate"
         additive="sum"
         begin="2s; loop.end + 2s"
         dur="1.5s"
         repeatCount="1"
         fill="none"
         from="0.0 0.0 0.0"
         to="0.0 0.0 0.0"
         calcMode="discrete" />
      <animateTransform
         attributeName="transform"
         type="rotate"
         additive="sum"
         begin="3.5s; loop.end + 3.5s"
         dur="0.5s"
         repeatCount="1"
         fill="none"
         from="0.0 0.0 0.0"
         to="0.0 0.0 0.0"
         calcMode="discrete" />
      <animateTransform
         attributeName="transform"
         type="scale"
         additive="sum"
         begin="0.5s; loop.end + 0.5s"
         dur="1.5s"
         repeatCount="1"
         fill="none"
         from="3.7795276641845703 3.7795276641845703"
         to="3.7795276641845703 3.7795276641845703"
         calcMode="discrete" />
      <animateTransform
         attributeName="transform"
         type="scale"
         additive="sum"
         begin="2s; loop.end + 2s"
         dur="1.5s"
         repeatCount="1"
         fill="none"
         from="3.7795276641845703 3.7795276641845703"
         to="3.7795276641845703 3.7795276641845703"
         calcMode="discrete" />
      <animateTransform
         attributeName="transform"
         type="scale"
         additive="sum"
         begin="3.5s; loop.end + 3.5s"
         dur="0.5s"
         repeatCount="1"
         fill="none"
         from="3.7795276641845703 3.7795276641845703"
         to="3.7795276641845703 3.7795276641845703"
         calcMode="discrete" />
      <animate
         attributeType="CSS"
         attributeName="opacity"
         begin="0.5s; loop.end + 0.5s"
         dur="1.5s"
         repeatCount="1"
         fill="none"
         from="0.0"
         to="1.0"
         calcMode="spline"
         keyTimes="0;1"
         keySplines="0.66 0.0 0.34 1.0" />
      <animate
         attributeType="CSS"
         attributeName="opacity"
         begin="2s; loop.end + 2s"
         dur="1.5s"
         repeatCount="1"
         fill="none"
         from="1.0"
         to="0.0"
         calcMode="spline"
         keyTimes="0;1"
         keySplines="0.66 0.0 0.34 1.0" />
      <animate
         attributeType="CSS"
         attributeName="opacity"
         begin="3.5s; loop.end + 3.5s"
         dur="0.5s"
         repeatCount="1"
         fill="none"
         from="0.0"
         to="0.0"
         calcMode="discrete"
         keyTimes="0;1"
         keySplines="0.3333333333335809 0.0 0.6E072E6E072E9142 0.33333333333344445" />
      <animateTransform
         attributeName="transform"
         type="translate"
         additive="sum"
         begin="0.5s; loop.end + 0.5s"
         dur="1.5s"
         repeatCount="1"
         fill="none"
         from="-0.0 -0.0"
         to="-0.0 -0.0"
         calcMode="discrete" />
      <animateTransform
         attributeName="transform"
         type="translate"
         additive="sum"
         begin="2s; loop.end + 2s"
         dur="1.5s"
         repeatCount="1"
         fill="none"
         from="-0.0 -0.0"
         to="-0.0 -0.0"
         calcMode="discrete" />
      <animateTransform
         attributeName="transform"
         type="translate"
         additive="sum"
         begin="3.5s; loop.end + 3.5s"
         dur="0.5s"
         repeatCount="1"
         fill="none"
         from="-0.0 -0.0"
         to="-0.0 -0.0"
         calcMode="discrete" />
      <path
         id="idb041b3f05e3b9cfbd5e71210"
         d="M 119.233,41.484 C 119.104,41.484 119.159,41.587 119.606,42.181 C 120.711,43.65 121.644,45.479 122.162,47.194 C 122.678,48.907 122.813,49.757 122.841,51.458 C 122.883,53.936 122.671,55.545 122.051,57.42 C 121.503,59.075 120.85,60.288 119.587,62 C 117.343,65.037 114.402,67.564 110.794,69.553 C 107.912,71.14 100.459,75.903 98.157,77.624 C 96.496,78.866 93.951,81.304 92.534,83.01 C 90.274,85.728 89.219,87.899 88.465,91.373 C 87.351,96.516 87.754,101.183 89.657,105.127 C 91.134,108.185 93.224,110.572 96.314,112.731 C 97.812,113.777 99.331,114.483 100.686,114.764 C 102.264,115.089 102.664,114.93 101.381,114.486 C 99.865,113.961 98.623,113.13 97.283,111.742 C 96.351,110.777 96.04,110.35 95.426,109.192 C 95.211,108.783 94.892,108.187 94.721,107.868 C 93.646,105.882 93.095,103.458 93.067,100.579 C 93.046,98.421 93.237,96.843 93.774,94.783 C 95.01,90.039 97.519,86.023 101.231,82.843 C 102.518,81.741 103.03,81.404 109.019,77.701 C 111.904,75.917 115.526,73.487 116.806,72.477 C 117.551,71.89 119.349,70.127 120.07,69.278 C 121.065,68.107 122.242,66.207 122.74,64.974 C 122.812,64.792 122.983,64.401 123.118,64.105 C 123.729,62.774 124.325,60.588 124.674,58.391 C 124.845,57.318 124.917,53.699 124.792,52.499 C 124.609,50.743 124.224,48.915 123.818,47.873 C 123.141,46.136 121.938,44.338 120.11,42.333 C 119.559,41.73 119.314,41.499 119.23,41.499 L 119.23,41.499 M 119.23,41.499 "
         style="fill: #6E072E; fill-opacity: 1.0; stroke: none"
         visibility="hidden">
        <set
           attributeName="visibility"
           attributeType="CSS"
           to="hidden"
           begin="0s; loop.end"
           dur="0.5"
           fill="none" />
        <set
           attributeName="visibility"
           attributeType="CSS"
           to="visible"
           begin="0.5s; loop.end + 0.5s"
           fill="none" />
        <animateTransform
           attributeName="transform"
           type="translate"
           additive="replace"
           begin="0.5s; loop.end + 0.5s"
           dur="3.5s"
           repeatCount="1"
           fill="none"
           from="0.0 0.0"
           to="0.0 0.0"
           calcMode="discrete" />
        <animateTransform
           attributeName="transform"
           type="translate"
           additive="sum"
           begin="0.5s; loop.end + 0.5s"
           dur="3.5s"
           repeatCount="1"
           fill="none"
           from="-106.3543 -78.2228"
           to="-106.3543 -78.2228"
           calcMode="discrete" />
      </path>
    </g>
    <g
       id="id1ffd53df6bfe2a01db716ecc"
       visibility="hidden">
      <set
         attributeName="visibility"
         attributeType="CSS"
         to="hidden"
         begin="0s; loop.end"
         dur="0.1"
         fill="none" />
      <set
         attributeName="visibility"
         attributeType="CSS"
         to="visible"
         begin="0.1s; loop.end + 0.1s"
         fill="none" />
      <animateTransform
         attributeName="transform"
         type="translate"
         additive="replace"
         begin="0.1s; loop.end + 0.1s"
         dur="1.4s"
         repeatCount="1"
         fill="none"
         from="403.962 201.147"
         to="403.962 201.147"
         calcMode="discrete"
         keyTimes="0;1"
         keySplines="0.66 0.0 0.34 1.0" />
      <animateTransform
         attributeName="transform"
         type="translate"
         additive="replace"
         begin="1.5s; loop.end + 1.5s"
         dur="1.5s"
         repeatCount="1"
         fill="none"
         from="403.962 201.147"
         to="403.962 201.147"
         calcMode="discrete" />
      <animateTransform
         attributeName="transform"
         type="translate"
         additive="replace"
         begin="3s; loop.end + 3s"
         dur="1s"
         repeatCount="1"
         fill="none"
         from="403.962 201.147"
         to="403.962 201.147"
         calcMode="discrete" />
      <animateTransform
         attributeName="transform"
         type="rotate"
         additive="sum"
         begin="0.1s; loop.end + 0.1s"
         dur="1.4s"
         repeatCount="1"
         fill="none"
         from="0.0 0.0 0.0"
         to="0.0 0.0 0.0"
         calcMode="discrete" />
      <animateTransform
         attributeName="transform"
         type="rotate"
         additive="sum"
         begin="1.5s; loop.end + 1.5s"
         dur="1.5s"
         repeatCount="1"
         fill="none"
         from="0.0 0.0 0.0"
         to="0.0 0.0 0.0"
         calcMode="discrete" />
      <animateTransform
         attributeName="transform"
         type="rotate"
         additive="sum"
         begin="3s; loop.end + 3s"
         dur="1s"
         repeatCount="1"
         fill="none"
         from="0.0 0.0 0.0"
         to="0.0 0.0 0.0"
         calcMode="discrete" />
      <animateTransform
         attributeName="transform"
         type="scale"
         additive="sum"
         begin="0.1s; loop.end + 0.1s"
         dur="1.4s"
         repeatCount="1"
         fill="none"
         from="3.7795276641845703 3.7795276641845703"
         to="3.7795276641845703 3.7795276641845703"
         calcMode="discrete" />
      <animateTransform
         attributeName="transform"
         type="scale"
         additive="sum"
         begin="1.5s; loop.end + 1.5s"
         dur="1.5s"
         repeatCount="1"
         fill="none"
         from="3.7795276641845703 3.7795276641845703"
         to="3.7795276641845703 3.7795276641845703"
         calcMode="discrete" />
      <animateTransform
         attributeName="transform"
         type="scale"
         additive="sum"
         begin="3s; loop.end + 3s"
         dur="1s"
         repeatCount="1"
         fill="none"
         from="3.7795276641845703 3.7795276641845703"
         to="3.7795276641845703 3.7795276641845703"
         calcMode="discrete" />
      <animate
         attributeType="CSS"
         attributeName="opacity"
         begin="0.1s; loop.end + 0.1s"
         dur="1.4s"
         repeatCount="1"
         fill="none"
         from="0.0"
         to="1.0"
         calcMode="spline"
         keyTimes="0;1"
         keySplines="0.66 0.0 0.34 1.0" />
      <animate
         attributeType="CSS"
         attributeName="opacity"
         begin="1.5s; loop.end + 1.5s"
         dur="1.5s"
         repeatCount="1"
         fill="none"
         from="1.0"
         to="0.0"
         calcMode="spline"
         keyTimes="0;1"
         keySplines="0.66 0.0 0.34 1.0" />
      <animate
         attributeType="CSS"
         attributeName="opacity"
         begin="3s; loop.end + 3s"
         dur="1s"
         repeatCount="1"
         fill="none"
         from="0.0"
         to="0.0"
         calcMode="discrete"
         keyTimes="0;1"
         keySplines="0.3333333333338283 0.0 0.6E072E6666671616 0.3333333333335555" />
      <animateTransform
         attributeName="transform"
         type="translate"
         additive="sum"
         begin="0.1s; loop.end + 0.1s"
         dur="1.4s"
         repeatCount="1"
         fill="none"
         from="-0.0 -1.0E-4"
         to="-0.0 -1.0E-4"
         calcMode="discrete" />
      <animateTransform
         attributeName="transform"
         type="translate"
         additive="sum"
         begin="1.5s; loop.end + 1.5s"
         dur="1.5s"
         repeatCount="1"
         fill="none"
         from="-0.0 -1.0E-4"
         to="-0.0 -1.0E-4"
         calcMode="discrete" />
      <animateTransform
         attributeName="transform"
         type="translate"
         additive="sum"
         begin="3s; loop.end + 3s"
         dur="1s"
         repeatCount="1"
         fill="none"
         from="-0.0 -1.0E-4"
         to="-0.0 -1.0E-4"
         calcMode="discrete" />
      <path
         id="id5138c3569d240f7456fb1c45"
         d="M 125.982,45.998 C 125.97,46.001 125.963,46.015 125.963,46.039 C 125.962,46.106 126.142,46.572 126.363,47.072 C 127.644,49.949 128.221,52.662 128.221,55.811 C 128.221,58.872 127.643,61.926 126.574,64.486 C 125.317,67.499 122.861,70.684 120.187,72.774 C 119.832,73.052 119.132,73.601 118.631,73.994 C 117.434,74.935 115.966,75.897 114.284,76.844 C 112.688,77.743 107.592,80.779 106.868,81.262 C 105.022,82.492 102.965,84.219 101.919,85.413 C 100.751,86.744 99.461,88.813 98.686,90.6 C 97.498,93.336 96.926,95.911 96.839,98.914 C 96.746,102.144 97.226,104.499 98.513,107.113 C 100.74,111.631 104.643,114.703 108.766,115.183 L 108.766,115.183 C 109.627,115.282 111.89,115.285 112.76,115.189 C 114.609,114.983 116.318,114.598 117.146,114.202 C 117.418,114.073 117.901,113.867 118.22,113.744 C 118.944,113.464 120.962,112.481 121.599,112.099 C 122.368,111.637 124.592,109.94 125.626,109.025 C 131.223,104.078 135.363,97.774 137.757,90.559 C 138.731,87.617 139.227,85.381 139.626,82.119 C 139.961,79.383 140.118,75.12 139.966,72.997 C 139.864,71.583 139.64,69.562 139.573,69.454 C 139.469,69.283 139.319,69.614 139.274,70.124 C 138.988,73.208 137.497,78.278 135.661,82.401 C 133.099,88.158 129.478,93.882 125.772,98.038 C 124.521,99.441 121.041,102.825 120.228,103.43 C 119.066,104.294 117.925,104.798 116.115,105.242 C 115.364,105.427 115.065,105.455 113.921,105.455 C 112.387,105.455 111.678,105.314 110.543,104.78 C 109.093,104.098 107.75,102.705 107.371,101.493 C 107.209,100.971 107.151,98.872 107.271,97.904 C 107.495,96.108 109.282,92.048 110.92,89.609 C 112.412,87.385 114.594,85.104 116.931,83.326 C 117.292,83.051 117.897,82.535 118.276,82.18 C 118.655,81.825 119.692,80.898 120.58,80.121 C 122.703,78.263 123.769,77.143 125.181,75.288 C 126.968,72.942 127.549,72.045 128.406,70.324 C 129.623,67.877 130.357,65.463 130.718,62.701 C 130.88,61.467 130.901,58.556 130.757,57.444 C 130.38,54.511 129.633,52.021 128.387,49.552 C 127.669,48.126 126.172,45.95 125.981,46.014 L 125.981,46.014 M 125.981,46.014 "
         style="fill: #6E072E; fill-opacity: 1.0; stroke: none"
         visibility="hidden">
        <set
           attributeName="visibility"
           attributeType="CSS"
           to="hidden"
           begin="0s; loop.end"
           dur="0.1"
           fill="none" />
        <set
           attributeName="visibility"
           attributeType="CSS"
           to="visible"
           begin="0.1s; loop.end + 0.1s"
           fill="none" />
        <animateTransform
           attributeName="transform"
           type="translate"
           additive="replace"
           begin="0.1s; loop.end + 0.1s"
           dur="3.9s"
           repeatCount="1"
           fill="none"
           from="0.0 0.0"
           to="0.0 0.0"
           calcMode="discrete" />
        <animateTransform
           attributeName="transform"
           type="translate"
           additive="sum"
           begin="0.1s; loop.end + 0.1s"
           dur="3.9s"
           repeatCount="1"
           fill="none"
           from="-118.4233 -80.6414"
           to="-118.4233 -80.6414"
           calcMode="discrete" />
      </path>
    </g>
  </g>
  <script
     id="script27"><![CDATA[
      var document = null;
      var root = null;
      var scheduler = null;
      var schedulerEnabled = ((navigator.userAgent.indexOf('Safari') != -1) && (navigator.userAgent.indexOf('Chrome') == -1)) ||
                             (navigator.userAgent.match(/(iPod|iPhone|iPad)/) && navigator.userAgent.match(/AppleWebKit/) && !navigator.userAgent.match('CriOS'));
      var currentEvent = 0;
      var previousTime = 0;
      var nextTime = 0;

      function initialize(event)
      {
         document = event.target.ownerDocument;
         root = document.documentElement;
         if (schedulerEnabled && events.length > 0) {
             var event = events[currentEvent];
             while (currentEvent < events.length && events[currentEvent]["time"] == 0) { 
                 processEvent();
                 currentEvent += 1;
             }
             if (currentEvent < events.length) {
                 var time = events[currentEvent]["time"];
                 nextTime = time;
                 scheduler = setTimeout(processSchedule, time - previousTime);
             }
         }
      };

      function freeze()
      {
         root.pauseAnimations();
      };

      function processSchedule()
      {
         if (currentEvent < events.length) {
             var event = events[currentEvent];
             previousTime = nextTime;
             while (currentEvent < events.length && events[currentEvent]["time"] == nextTime) { 
                 processEvent();
                 currentEvent += 1;
             }
             if (currentEvent < events.length) {
                 var time = events[currentEvent]["time"];
                 nextTime = time;
                 scheduler = setTimeout(processSchedule, time - previousTime);
             }
         }
      };

      function processEvent()
      {
         var event = events[currentEvent];
         if ("audio_start" in event) { 
             event = event["audio_start"];
             var id = event["id"];
             var audio = document.getElementById(id);
             if (audio != undefined)
                 audio.play();
         }
         else if ("audio_stop" in event) { 
             event = event["audio_stop"];
             var id = event["id"];
             var audio = document.getElementById(id);
             if (audio != undefined) {
                 audio.pause();
                 audio.currentTime = 0;
             }
         }
         else if ("pause" in event) { 
             event = event["pause"];
             freeze();
         }
      };

    var events = [{"time": 3650,"pause": {}}]
]]></script>
  <rect
     id="looper"
     x="0"
     y="0"
     width="1"
     height="1"
     style="fill: none; stroke: none">
    <set
       id="loop"
       attributeName="x"
       to="0"
       begin="0s; loop.end"
       dur="4s"
       fill="freeze" />
  </rect>
</svg>
